<?xml version="1.0" encoding="utf-8"?>
<!-- Generator: Adobe Illustrator 26.0.3, SVG Export Plug-In . SVG Version: 6.00 Build 0)  -->
<svg version="1.1" id="Layer_1" xmlns="http://www.w3.org/2000/svg" xmlns:xlink="http://www.w3.org/1999/xlink" x="0px" y="0px"
	 viewBox="0 0 700 700" style="enable-background:new 0 0 700 700;" xml:space="preserve">
<style type="text/css">
	.st0{fill:url(#SVGID_1_);}
	
		.st1{opacity:0.5;clip-path:url(#SVGID_00000148638122457136507240000005663616079505948552_);fill:url(#SVGID_00000111882982421484306600000005525314558522941320_);}
	.st2{fill:url(#SVGID_00000057145427361905880830000016297660756430884240_);}
	
		.st3{opacity:0.5;clip-path:url(#SVGID_00000062176794675658889210000005959195593952396451_);fill:url(#SVGID_00000106141378040607009850000015506650022124378790_);}
	.st4{fill:url(#SVGID_00000067916087615719788820000007323658570302889909_);}
	.st5{opacity:0.7;}
	.st6{fill:url(#SVGID_00000034087251185546387220000018059359555543351978_);}
	.st7{fill:url(#SVGID_00000080903914854573934810000007230658842088156812_);}
	.st8{opacity:0.25;}
	.st9{fill:url(#SVGID_00000015351187925425609780000012854479954430476452_);}
</style>
<g>
	<linearGradient id="SVGID_1_" gradientUnits="userSpaceOnUse" x1="174.977" y1="382.8461" x2="451.1033" y2="382.8461">
		<stop  offset="0" style="stop-color:#3F5CBF"/>
		<stop  offset="1" style="stop-color:#48D5E5"/>
	</linearGradient>
	<path class="st0" d="M281.8,465.7c6.7-36.6,37.7-53.5,42.2-55.9c24.1-12.6,47.2-9.2,54.6-7.8c24.5-97.6,49.1-195.2,73.6-292.8
		c-26-7.8-53.5-12-81.9-12c-157.7,0-285.5,127.8-285.5,285.5c0,157.7,127.8,285.5,285.5,285.5c24.3,0,47.9-3.1,70.5-8.8
		c16.8-4.3,21-4,24.1-7.3c18.8-19.7-19.2-84.1-33.5-106.9c-50.9,24.4-104.9,17-131.5-14.3C287.7,516.9,276.9,492.7,281.8,465.7z"/>
	<g>
		<defs>
			<path id="SVGID_00000094580552401391202430000005155517436865523333_" d="M281.8,465.7c6.7-36.6,37.7-53.5,42.2-55.9
				c24.1-12.6,47.2-9.2,54.6-7.8c24.5-97.6,49.1-195.2,73.6-292.8c-26-7.8-53.5-12-81.9-12c-157.7,0-285.5,127.8-285.5,285.5
				c0,157.7,127.8,285.5,285.5,285.5c24.3,0,47.9-3.1,70.5-8.8c16.8-4.3,21-4,24.1-7.3c18.8-19.7-19.2-84.1-33.5-106.9
				c-50.9,24.4-104.9,17-131.5-14.3C287.7,516.9,276.9,492.7,281.8,465.7z"/>
		</defs>
		<clipPath id="SVGID_00000136408362303377547240000014267817423302371714_">
			<use xlink:href="#SVGID_00000094580552401391202430000005155517436865523333_"  style="overflow:visible;"/>
		</clipPath>
		
			<linearGradient id="SVGID_00000176015698602224267240000016402277537195489946_" gradientUnits="userSpaceOnUse" x1="131.0304" y1="36.677" x2="736.7244" y2="136.4789">
			<stop  offset="0" style="stop-color:#266F9A"/>
			<stop  offset="1" style="stop-color:#266F9A;stop-opacity:0.5"/>
		</linearGradient>
		
			<path style="opacity:0.5;clip-path:url(#SVGID_00000136408362303377547240000014267817423302371714_);fill:url(#SVGID_00000176015698602224267240000016402277537195489946_);" d="
			M133.9-221.4C26.2-149.3-5.8-30.2-14.8,10.5c91.4,130.4,182.7,260.7,274.1,391.1c2-1,28.3-13.3,47.9,0.5c3,2.1,7,5.7,10.5,11.5
			c164,27.6,328,55.3,491.9,82.9c148.5-90.5,175.3-188,181.9-221.9c43.9-225.2-253.4-454.3-497.6-520.1
			C411.7-267.6,262.8-307.7,133.9-221.4z"/>
	</g>
	
		<linearGradient id="SVGID_00000070082139501061322610000017943038597811433901_" gradientUnits="userSpaceOnUse" x1="-71.0173" y1="350" x2="602.0397" y2="350">
		<stop  offset="0" style="stop-color:#3F5CBF"/>
		<stop  offset="1" style="stop-color:#48D5E5"/>
	</linearGradient>
	<path style="fill:url(#SVGID_00000070082139501061322610000017943038597811433901_);" d="M275.9,384.2c27.7-22.1,60-22.7,72.2-22.3
		c34.1-115.7,68.3-231.5,102.4-347.2C418.6,5.1,384.9,0,350,0C156.7,0,0,156.7,0,350s156.7,350,350,350c40.6,0,79.6-6.9,115.9-19.7
		c42.1-16,69.3-49.6,68.2-82c-0.3-9.1-3.3-32.3-21.4-48.2c-3-2.7-12.5-10.4-28.9-13.8c-44.8-9.4-69.4,28.5-118.1,36.1
		c-37.9,5.9-89.3-6.9-114.3-43.6C222.4,486.3,233.3,418.2,275.9,384.2z"/>
	<g>
		<defs>
			<path id="SVGID_00000139253086034197373360000015326150354642324916_" d="M275.9,384.2c27.7-22.1,60-22.7,72.2-22.3
				c34.1-115.7,68.3-231.5,102.4-347.2C418.6,5.1,384.9,0,350,0C156.7,0,0,156.7,0,350s156.7,350,350,350
				c40.6,0,79.6-6.9,115.9-19.7c42.1-16,69.3-49.6,68.2-82c-0.3-9.1-3.3-32.3-21.4-48.2c-3-2.7-12.5-10.4-28.9-13.8
				c-44.8-9.4-69.4,28.5-118.1,36.1c-37.9,5.9-89.3-6.9-114.3-43.6C222.4,486.3,233.3,418.2,275.9,384.2z"/>
		</defs>
		<clipPath id="SVGID_00000046336941832115198290000007289368418264420279_">
			<use xlink:href="#SVGID_00000139253086034197373360000015326150354642324916_"  style="overflow:visible;"/>
		</clipPath>
		
			<linearGradient id="SVGID_00000166677932953164795060000008721870281774719406_" gradientUnits="userSpaceOnUse" x1="32.4405" y1="-2.8727" x2="659.2596" y2="100.41">
			<stop  offset="0" style="stop-color:#266F9A"/>
			<stop  offset="1" style="stop-color:#266F9A;stop-opacity:0.5"/>
		</linearGradient>
		
			<path style="opacity:0.5;clip-path:url(#SVGID_00000046336941832115198290000007289368418264420279_);fill:url(#SVGID_00000166677932953164795060000008721870281774719406_);" d="
			M-126.5,25.3C-139,199,40.3,333.6,66,352.3c53.9-30.5,114.7-31.4,155.4-1.3c20.9,15.5,32,35.8,38,50.6
			c333.3,78.6,613.9-31.4,666.3-188c64.5-192.8-205.9-489-497.6-520.1C194.1-331.3-111-191.8-126.5,25.3z"/>
	</g>
	
		<linearGradient id="SVGID_00000105396509077006602810000017389393868198891935_" gradientUnits="userSpaceOnUse" x1="2.713011e-02" y1="313.0431" x2="699.973" y2="313.0431">
		<stop  offset="0" style="stop-color:#3F5CBF"/>
		<stop  offset="1" style="stop-color:#48D5E5"/>
	</linearGradient>
	<path style="fill:url(#SVGID_00000105396509077006602810000017389393868198891935_);" d="M134.9,626.1C52.8,562,0,462.2,0,350
		C0,156.7,156.7,0,350,0c178.6,0,326,133.8,347.3,306.6c-0.1,0.5-0.2,0.9-0.3,1.4c1.9,12,18.2,124.9-53.8,183.4
		c-43.4,35.4-96.9,32.9-101.2,32.7c-150.6-9-195.2-260.5-344.7-265.7c-9-0.3-43.4-0.6-75.9,20c-73.4,46.5-70.4,156.9-69.6,175
		C56.3,548.5,117.9,610.1,134.9,626.1z"/>
	<g class="st5">
		
			<linearGradient id="SVGID_00000051352880875779727730000011042201943960863129_" gradientUnits="userSpaceOnUse" x1="2.713011e-02" y1="313.0431" x2="1387.5002" y2="313.0431">
			<stop  offset="0" style="stop-color:#FFFFFF"/>
			<stop  offset="1" style="stop-color:#6AB0BD;stop-opacity:0"/>
		</linearGradient>
		<path style="fill:url(#SVGID_00000051352880875779727730000011042201943960863129_);" d="M134.9,626.1C52.8,562,0,462.2,0,350
			C0,156.7,156.7,0,350,0c178.6,0,326,133.8,347.3,306.6c-0.1,0.5-0.2,0.9-0.3,1.4c1.9,12,18.2,124.9-53.8,183.4
			c-43.4,35.4-96.9,32.9-101.2,32.7c-150.6-9-195.2-260.5-344.7-265.7c-9-0.3-43.4-0.6-75.9,20c-73.4,46.5-70.4,156.9-69.6,175
			C56.3,548.5,117.9,610.1,134.9,626.1z"/>
	</g>
	
		<linearGradient id="SVGID_00000168804523668306741600000006851650579136373404_" gradientUnits="userSpaceOnUse" x1="344.8337" y1="-44.2772" x2="344.8337" y2="520.846">
		<stop  offset="0" style="stop-color:#3F5CBF"/>
		<stop  offset="1" style="stop-color:#48D5E5"/>
	</linearGradient>
	<path style="fill:url(#SVGID_00000168804523668306741600000006851650579136373404_);" d="M0,350C0,156.7,156.7,0,350,0
		c147.6,0,273.9,91.4,325.3,220.7l0,0c5,10.7,11.2,27.5,13.2,48.8c1.1,11.5,5.2,48.9-14.7,77.5c-26.3,37.7-75.2,42.8-80.1,43.2
		C467.7,401.4,420.4,187,247.4,163.1c-16-2.2-64.7-8.3-114.4,16.3C50.9,220,27.9,314,22.4,336.4c-16,65.5-3.5,121.7,6.2,152.3
		C10.2,446.2,0,399.3,0,350z"/>
	<g class="st8">
		
			<linearGradient id="SVGID_00000011017879773778134190000004723425563919586450_" gradientUnits="userSpaceOnUse" x1="-6794.4209" y1="118.6985" x2="-6423.3369" y2="179.8431" gradientTransform="matrix(-1 0 0 1 -6247.5664 0)">
			<stop  offset="0" style="stop-color:#FFFFFF"/>
			<stop  offset="1" style="stop-color:#6AB0BD"/>
		</linearGradient>
		<path style="fill:url(#SVGID_00000011017879773778134190000004723425563919586450_);" d="M16.3,244.3C61.1,102.6,193.6,0,350,0
			C455.4,0,549.8,46.5,614,120.2c38.8,49.6,49.3,100,29.3,125.6c-16,20.5-47.7,20.1-51.7,20c-75.2-1.9-81-108.1-184.5-167.6
			c-96.4-55.5-201.7-26.9-210.8-24.2c-12.2,3.5-47,14.5-84.3,42.2C52,160.6,26.2,217.9,16.3,244.3z"/>
	</g>
</g>
</svg>
