<?xml version="1.0" standalone="no"?>
<!DOCTYPE svg PUBLIC "-//W3C//DTD SVG 20010904//EN"
 "http://www.w3.org/TR/2001/REC-SVG-20010904/DTD/svg10.dtd">
<svg version="1.0" xmlns="http://www.w3.org/2000/svg"
 width="700.000000pt" height="700.000000pt" viewBox="0 0 700.000000 700.000000"
 preserveAspectRatio="xMidYMid meet">
<metadata>
Created by potrace 1.14, written by Peter Selinger 2001-2017
</metadata>
<g transform="translate(0.000000,700.000000) scale(0.100000,-0.100000)"
fill="#000000" stroke="none">
<path d="M3105 6980 c-1265 -150 -2332 -947 -2830 -2114 -121 -286 -204 -592
-251 -931 -19 -137 -28 -620 -13 -745 4 -41 11 -102 15 -135 3 -33 7 -62 9
-65 2 -3 6 -27 9 -53 17 -127 70 -347 127 -522 137 -428 401 -889 705 -1231
137 -154 360 -363 464 -434 19 -13 37 -27 40 -30 24 -26 220 -157 351 -235
105 -62 387 -205 404 -205 4 0 21 -6 38 -14 65 -30 157 -64 157 -59 0 3 6 1
13 -4 14 -12 119 -46 242 -79 6 -2 39 -10 75 -19 36 -9 81 -20 100 -25 19 -5
51 -12 70 -15 19 -3 60 -10 90 -15 30 -6 75 -12 100 -15 25 -3 54 -8 65 -10
150 -31 690 -26 902 9 21 4 54 9 73 11 19 3 46 7 60 10 14 2 39 7 55 10 196
37 442 110 574 171 300 140 517 377 577 633 34 141 -1 351 -81 487 -113 193
-343 306 -592 292 -109 -7 -214 -39 -364 -113 -79 -39 -261 -97 -344 -111 -20
-3 -47 -8 -59 -11 -11 -2 -77 -6 -146 -8 -495 -13 -839 237 -920 669 -19 102
-8 272 24 364 113 327 420 550 766 554 164 3 163 3 260 -124 78 -101 226 -286
239 -298 3 -3 35 -39 70 -80 102 -119 316 -325 419 -402 189 -142 345 -224
532 -279 384 -113 844 -33 1210 209 110 73 280 243 353 353 139 211 235 462
273 719 3 19 7 46 10 60 26 150 26 551 -1 755 -2 17 -7 53 -9 80 -6 49 -20
135 -31 185 -3 14 -8 39 -11 55 -24 134 -105 410 -163 555 -497 1239 -1612
2078 -2936 2209 -158 16 -554 11 -720 -9z"/>
</g>
</svg>
