<?xml version="1.0" encoding="utf-8"?>
<!-- Generator: Adobe Illustrator 26.0.3, SVG Export Plug-In . SVG Version: 6.00 Build 0)  -->
<svg version="1.1" id="Layer_1" xmlns="http://www.w3.org/2000/svg" xmlns:xlink="http://www.w3.org/1999/xlink" x="0px" y="0px"
	 viewBox="0 0 3000 375" style="enable-background:new 0 0 3000 375;" xml:space="preserve">
<style type="text/css">
	.st0{clip-path:url(#SVGID_00000099635797154485188640000008881595352923899055_);}
	.st1{clip-path:url(#SVGID_00000018199129725116600050000000032712348974231449_);}
	.st2{opacity:0.6;}
	.st3{fill:url(#SVGID_00000036951207021332229700000005603436657636101531_);}
	.st4{fill:none;}
	
		.st5{opacity:0.55;fill-rule:evenodd;clip-rule:evenodd;fill:url(#SVGID_00000105395346270289623540000011759333709380252823_);enable-background:new    ;}
	
		.st6{opacity:0.65;fill-rule:evenodd;clip-rule:evenodd;fill:url(#SVGID_00000150086191450683604280000003032851976656584373_);enable-background:new    ;}
	
		.st7{opacity:0.65;fill-rule:evenodd;clip-rule:evenodd;fill:url(#SVGID_00000054945497710360326070000011044725445995502499_);enable-background:new    ;}
	.st8{opacity:0.3;fill-rule:evenodd;clip-rule:evenodd;fill:#FFB500;enable-background:new    ;}
	.st9{opacity:0.1;fill-rule:evenodd;clip-rule:evenodd;fill:#FFB500;enable-background:new    ;}
	.st10{opacity:0.1;fill-rule:evenodd;clip-rule:evenodd;fill:#00D9E8;enable-background:new    ;}
	.st11{fill-rule:evenodd;clip-rule:evenodd;fill:url(#SVGID_00000011725091120603670310000010742204869576936324_);}
	.st12{fill-rule:evenodd;clip-rule:evenodd;fill:#FFFFFF;}
	.st13{fill-rule:evenodd;clip-rule:evenodd;fill:url(#SVGID_00000105392104159665476410000005247790585465334949_);}
	
		.st14{opacity:0.3;fill-rule:evenodd;clip-rule:evenodd;fill:url(#SVGID_00000117660442874315506170000017450044490271561105_);enable-background:new    ;}
	
		.st15{opacity:0.25;fill-rule:evenodd;clip-rule:evenodd;fill:url(#SVGID_00000088094028404912187820000004122211848622408071_);enable-background:new    ;}
	
		.st16{opacity:0.15;fill-rule:evenodd;clip-rule:evenodd;fill:url(#SVGID_00000163769353217852998800000013833499859517729703_);enable-background:new    ;}
	.st17{opacity:0.3;}
	.st18{fill-rule:evenodd;clip-rule:evenodd;fill:url(#SVGID_00000008827717201374152520000007509063381846982043_);}
	.st19{clip-path:url(#SVGID_00000145753397394070768810000002942728868756491139_);}
	.st20{opacity:0.4;fill-rule:evenodd;clip-rule:evenodd;fill:#FFFFFF;enable-background:new    ;}
	.st21{opacity:0.2;fill-rule:evenodd;clip-rule:evenodd;fill:#365DC6;enable-background:new    ;}
	.st22{fill-rule:evenodd;clip-rule:evenodd;fill:url(#SVGID_00000144306057032598441110000008836023964784955051_);}
	.st23{fill-rule:evenodd;clip-rule:evenodd;fill:url(#SVGID_00000008142546631809400130000010321838084773086867_);}
	.st24{opacity:0.7;}
	.st25{fill-rule:evenodd;clip-rule:evenodd;fill:url(#SVGID_00000096049173480554876470000007142608600844178835_);}
	.st26{fill-rule:evenodd;clip-rule:evenodd;fill:url(#SVGID_00000162348058601882850010000003026036347930818969_);}
	.st27{fill-rule:evenodd;clip-rule:evenodd;fill:url(#SVGID_00000146460876577068540500000009557267183630959003_);}
	.st28{fill-rule:evenodd;clip-rule:evenodd;fill:url(#SVGID_00000081636842466073418330000018288009731748053156_);}
	.st29{fill-rule:evenodd;clip-rule:evenodd;fill:url(#SVGID_00000072968380241903088950000013449005505996789388_);}
	
		.st30{opacity:0.3;fill-rule:evenodd;clip-rule:evenodd;fill:url(#SVGID_00000008109844671122756300000016335718092065476287_);enable-background:new    ;}
	.st31{opacity:0.2;fill-rule:evenodd;clip-rule:evenodd;fill:#230B45;enable-background:new    ;}
	.st32{opacity:0.4;fill-rule:evenodd;clip-rule:evenodd;fill:#230B45;enable-background:new    ;}
	.st33{fill-rule:evenodd;clip-rule:evenodd;fill:url(#SVGID_00000064316746447503052170000008434137219254337687_);}
	
		.st34{opacity:0.6;fill-rule:evenodd;clip-rule:evenodd;fill:url(#SVGID_00000170976028457357963240000012545106602584580797_);enable-background:new    ;}
	
		.st35{opacity:0.9;fill-rule:evenodd;clip-rule:evenodd;fill:url(#SVGID_00000167358445139796791310000014775681547005451949_);enable-background:new    ;}
	
		.st36{opacity:0.6;fill-rule:evenodd;clip-rule:evenodd;fill:url(#SVGID_00000093162964986078900420000003272445414786656656_);enable-background:new    ;}
	
		.st37{opacity:0.9;fill-rule:evenodd;clip-rule:evenodd;fill:url(#SVGID_00000177464713481431457540000010830150143477681050_);enable-background:new    ;}
	.st38{fill-rule:evenodd;clip-rule:evenodd;fill:url(#SVGID_00000181800140669111677440000012113148188891674496_);}
	
		.st39{opacity:0.9;fill-rule:evenodd;clip-rule:evenodd;fill:url(#SVGID_00000150063986402018714390000000378115473538798988_);enable-background:new    ;}
	.st40{fill-rule:evenodd;clip-rule:evenodd;fill:url(#SVGID_00000127756742614289853520000012203279074924435363_);}
	.st41{opacity:0.4;fill-rule:evenodd;clip-rule:evenodd;fill:#365DC6;enable-background:new    ;}
	.st42{opacity:0.4;fill-rule:evenodd;clip-rule:evenodd;fill:#FFB500;enable-background:new    ;}
	.st43{opacity:0.4;fill-rule:evenodd;clip-rule:evenodd;fill:#00D9E8;enable-background:new    ;}
	.st44{opacity:0.8;fill-rule:evenodd;clip-rule:evenodd;fill:#FFFFFF;enable-background:new    ;}
	.st45{fill:url(#SVGID_00000076575479205469043720000000351625022950250670_);}
	.st46{opacity:0.4;fill-rule:evenodd;clip-rule:evenodd;fill:#E7007D;enable-background:new    ;}
	
		.st47{opacity:0.9;fill-rule:evenodd;clip-rule:evenodd;fill:url(#SVGID_00000062886122751313341910000003827328356472649113_);enable-background:new    ;}
</style>
<g>
	<defs>
		<rect id="SVGID_1_" width="3000" height="375"/>
	</defs>
	<clipPath id="SVGID_00000136391158554954443230000004224060501852066970_">
		<use xlink:href="#SVGID_1_"  style="overflow:visible;"/>
	</clipPath>
	<g style="clip-path:url(#SVGID_00000136391158554954443230000004224060501852066970_);">
		<defs>
			<rect id="SVGID_00000111890615323995856870000011791953612874225536_" width="3000" height="375"/>
		</defs>
		<clipPath id="SVGID_00000026121229890843359720000016622727949892757929_">
			<use xlink:href="#SVGID_00000111890615323995856870000011791953612874225536_"  style="overflow:visible;"/>
		</clipPath>
		<g style="clip-path:url(#SVGID_00000026121229890843359720000016622727949892757929_);">
			<g class="st2">
				
					<linearGradient id="SVGID_00000046322948230221800930000000981281781349600135_" gradientUnits="userSpaceOnUse" x1="-4752.8042" y1="2431.7083" x2="-4752.3042" y2="2431.7083" gradientTransform="matrix(0 513.57 -513.56 0 1250328.125 2440874.25)">
					<stop  offset="0" style="stop-color:#00D9E8;stop-opacity:0.5"/>
					<stop  offset="0.5" style="stop-color:#FFB500;stop-opacity:0"/>
					<stop  offset="1" style="stop-color:#E7007D;stop-opacity:0.5"/>
				</linearGradient>
				<rect y="0.1" style="fill:url(#SVGID_00000046322948230221800930000000981281781349600135_);" width="2999.9" height="258.5"/>
			</g>
			<rect class="st4" width="3000" height="375"/>
			
				<linearGradient id="SVGID_00000163781523101379581400000012860796618414339243_" gradientUnits="userSpaceOnUse" x1="495.181" y1="339.242" x2="604.7311" y2="198.072" gradientTransform="matrix(1 0 0 -1 0 376)">
				<stop  offset="0" style="stop-color:#00D9E8;stop-opacity:0.3"/>
				<stop  offset="1" style="stop-color:#FFFFFF;stop-opacity:0"/>
			</linearGradient>
			
				<path style="opacity:0.55;fill-rule:evenodd;clip-rule:evenodd;fill:url(#SVGID_00000163781523101379581400000012860796618414339243_);enable-background:new    ;" d="
				M673.3-32.5c-52.4,0-94.9,42.5-94.9,94.9c0,0,0,0,0,0c0,3.7,0.3,7.4,0.7,11.1c-8.5-2.9-17.4-4.3-26.3-4.3
				c-40.4,0-74.8,29.1-81.6,68.9c-36.3-17.7-80.2-2.7-97.9,33.6s-2.7,80.2,33.6,97.9s80.2,2.7,97.9-33.6c2.1-4.3,3.7-8.7,5-13.3
				c39,23.8,89.9,11.5,113.7-27.5c7.9-13,12.1-28,12.1-43.2c0-0.9,0-1.7-0.1-2.6c48,20.9,104-1,124.9-49.1s-1-104-49.1-124.9
				C699.3-29.8,686.4-32.5,673.3-32.5z"/>
			
				<linearGradient id="SVGID_00000080917250561663319590000012639686114578087564_" gradientUnits="userSpaceOnUse" x1="73.643" y1="297.1208" x2="-2.027" y2="195.4808" gradientTransform="matrix(1 0 0 -1 0 376)">
				<stop  offset="0" style="stop-color:#00D9E8;stop-opacity:0.3"/>
				<stop  offset="1" style="stop-color:#FFFFFF;stop-opacity:0"/>
			</linearGradient>
			
				<path style="opacity:0.65;fill-rule:evenodd;clip-rule:evenodd;fill:url(#SVGID_00000080917250561663319590000012639686114578087564_);enable-background:new    ;" d="
				M58.6,115.6c-4.8,0-9.5,0.5-14.2,1.5c0.3-2.3,0.4-4.7,0.4-7c0.1-33.4-26.9-60.4-60.3-60.5c0,0-0.1,0-0.1,0
				c-33.4,0-60.5,27.1-60.5,60.5c0,33.4,27,60.4,60.4,60.4c0,0,0.1,0,0.1,0c3.5,0,7-0.3,10.4-0.9c-0.6,3.5-0.9,7.1-0.9,10.7
				c-0.1,35.8,28.9,64.8,64.7,64.9s64.8-28.9,64.9-64.7s-28.9-64.8-64.7-64.9C58.7,115.6,58.7,115.6,58.6,115.6z"/>
			
				<linearGradient id="SVGID_00000054239516576579522230000004593322686281564298_" gradientUnits="userSpaceOnUse" x1="-175.7367" y1="1798.0614" x2="-327.0768" y2="1644.4614" gradientTransform="matrix(0.2924 -0.9563 -0.9563 -0.2924 4550.4136 376.9333)">
				<stop  offset="0" style="stop-color:#00D9E8;stop-opacity:0.3"/>
				<stop  offset="1" style="stop-color:#FFFFFF;stop-opacity:0"/>
			</linearGradient>
			
				<path style="opacity:0.65;fill-rule:evenodd;clip-rule:evenodd;fill:url(#SVGID_00000054239516576579522230000004593322686281564298_);enable-background:new    ;" d="
				M2878.3,53.7c-4.5,14.8-5.4,30.4-2.5,45.6c-36,3.9-66.7,27.8-79.3,61.8c-8-5.5-16.7-9.7-26-12.5
				c-50.3-15.4-103.5,12.9-118.9,63.2s12.9,103.5,63.2,118.9c48.3,14.8,99.8-10.8,117.2-58.2c8,5.4,16.8,9.7,26,12.5
				c50.3,15.3,103.5-13,118.8-63.3c4.5-14.7,5.3-30.4,2.5-45.5c52.3-5.5,90.2-52.3,84.7-104.6c-5.5-52.3-52.3-90.2-104.6-84.7
				C2921.4-9.2,2889.5,17.2,2878.3,53.7z"/>
			<path class="st8" d="M2303.1,100.2c-81,0-267.8,138-407.1,158.3h754.7C2476.7,179.4,2397.6,100.3,2303.1,100.2z"/>
			<path class="st9" d="M2311.6,100.4c37.2,1.8,77.9,16.6,135,48.9c0,0-63.4,0.5-104.5-17.7C2326.2,124.6,2303.3,100,2311.6,100.4z"
				/>
			<path class="st10" d="M1923.5,259.8c-71.5-40.6-124.9-84.9-165.1-84.8c-56.5,0.3-102.1,38.8-197.3,84.8H1923.5z"/>
			
				<linearGradient id="SVGID_00000146478389406037706720000011042604852284622778_" gradientUnits="userSpaceOnUse" x1="2787.3999" y1="126.44" x2="2787.3999" y2="212.65" gradientTransform="matrix(1 0 0 -1 0 376)">
				<stop  offset="0" style="stop-color:#365DC6;stop-opacity:0"/>
				<stop  offset="1" style="stop-color:#365DC6;stop-opacity:0.6"/>
			</linearGradient>
			<path style="fill-rule:evenodd;clip-rule:evenodd;fill:url(#SVGID_00000146478389406037706720000011042604852284622778_);" d="
				M3000,167.7c0,0-30.3-18.7-74.6-9.4c-36.3,7.6-62.6,50-98.8,56.6c-39.9,7.3-76.8-27.4-122.6-25.6
				c-79.6,3.2-129.2,70.5-129.2,70.5H3000V167.7z"/>
			<path class="st12" d="M248.8,258.5c0,0,121.4-30.2,422.8-173.4C722.9,60.7,773.5,35.1,808,35c26.5-0.1,35.4,9.5,100.9,41.3
				c375.6,182.2,444.5,182.2,444.5,182.2H248.8z"/>
			
				<linearGradient id="SVGID_00000018214347306544748420000007087372268522516128_" gradientUnits="userSpaceOnUse" x1="801.1" y1="355.07" x2="801.1" y2="21.02" gradientTransform="matrix(1 0 0 -1 0 376)">
				<stop  offset="0" style="stop-color:#365DC6;stop-opacity:0.76"/>
				<stop  offset="1" style="stop-color:#FFFFFF;stop-opacity:0.9"/>
			</linearGradient>
			<path style="fill-rule:evenodd;clip-rule:evenodd;fill:url(#SVGID_00000018214347306544748420000007087372268522516128_);" d="
				M248.8,258.5c0,0,121.4-30.2,422.8-173.4C722.9,60.7,773.5,35.1,808,35c26.5-0.1,35.4,9.5,100.9,41.3
				c375.6,182.2,444.5,182.2,444.5,182.2H248.8z"/>
			
				<linearGradient id="SVGID_00000124129608641558684700000001008667882854564490_" gradientUnits="userSpaceOnUse" x1="1295.8402" y1="220.103" x2="254.5303" y2="232.523" gradientTransform="matrix(1 0 0 -1 0 376)">
				<stop  offset="0" style="stop-color:#365DC6;stop-opacity:0.76"/>
				<stop  offset="1" style="stop-color:#E7007D;stop-opacity:0.6"/>
			</linearGradient>
			
				<path style="opacity:0.3;fill-rule:evenodd;clip-rule:evenodd;fill:url(#SVGID_00000124129608641558684700000001008667882854564490_);enable-background:new    ;" d="
				M248.8,258.5c0,0,121.4-30.2,422.8-173.4C722.9,60.7,773.5,35.1,808,35c26.5-0.1,35.4,9.5,100.9,41.3
				c375.6,182.2,444.5,182.2,444.5,182.2H248.8z"/>
			
				<linearGradient id="SVGID_00000167394923817845835840000006796198498711231915_" gradientUnits="userSpaceOnUse" x1="1249.9586" y1="86.0884" x2="948.1386" y2="227.7284" gradientTransform="matrix(1 0 0 -1 0 376)">
				<stop  offset="0" style="stop-color:#365DC6;stop-opacity:0.1"/>
				<stop  offset="1" style="stop-color:#365DC6;stop-opacity:0.6"/>
			</linearGradient>
			
				<path style="opacity:0.25;fill-rule:evenodd;clip-rule:evenodd;fill:url(#SVGID_00000167394923817845835840000006796198498711231915_);enable-background:new    ;" d="
				M1089.9,258.5c0,0-112.6-11-143.7-33c-14.1-9.9,143.7,20.4,157,11.2c10.9-7.5-43.9-32.2-33.9-40.9
				c20.6-17.8,102.8,31.3,282.1,62.7H1089.9z"/>
			
				<linearGradient id="SVGID_00000167380371510794166390000014969136834441978268_" gradientUnits="userSpaceOnUse" x1="-8848.5557" y1="85.8702" x2="-9151.8057" y2="228.1803" gradientTransform="matrix(-1 0 0 -1 -8501.2803 376)">
				<stop  offset="0" style="stop-color:#365DC6;stop-opacity:0.1"/>
				<stop  offset="1" style="stop-color:#365DC6;stop-opacity:0.6"/>
			</linearGradient>
			
				<path style="opacity:0.15;fill-rule:evenodd;clip-rule:evenodd;fill:url(#SVGID_00000167380371510794166390000014969136834441978268_);enable-background:new    ;" d="
				M508.8,258.5c0,0,112.6-11,143.7-33c14.1-9.9-143.7,20.4-157,11.2c-10.9-7.5,43.9-32.2,33.9-40.9
				c-20.6-17.8-105.3,30.1-284.1,62.7H508.8z"/>
			<g class="st17">
				
					<linearGradient id="SVGID_00000141424020311972606240000001485292955031013547_" gradientUnits="userSpaceOnUse" x1="845.4" y1="80.52" x2="845.4" y2="190.06" gradientTransform="matrix(1 0 0 -1 0 376)">
					<stop  offset="0" style="stop-color:#365DC6;stop-opacity:0"/>
					<stop  offset="1" style="stop-color:#365DC6;stop-opacity:0.6"/>
				</linearGradient>
				<path style="fill-rule:evenodd;clip-rule:evenodd;fill:url(#SVGID_00000141424020311972606240000001485292955031013547_);" d="
					M689.7,258.5c0,0,90.9-51.5,107-56.2c4.4-1.3,26,8.2,26,8.2s34.9,1,46.3,3.3c34.2,6.9,132.1,44.7,132.1,44.7H689.7z"/>
			</g>
			<g>
				<defs>
					<path id="SVGID_00000021104011860250400010000011629462767478864565_" d="M248.8,258.5c0,0,121.4-30.2,422.8-173.4
						C722.9,60.7,773.5,35.1,808,35c26.5-0.1,35.4,9.5,100.9,41.3c375.6,182.2,444.5,182.2,444.5,182.2H248.8z"/>
				</defs>
				<clipPath id="SVGID_00000109739317695873251710000005230818628098269571_">
					<use xlink:href="#SVGID_00000021104011860250400010000011629462767478864565_"  style="overflow:visible;"/>
				</clipPath>
				<g style="clip-path:url(#SVGID_00000109739317695873251710000005230818628098269571_);">
					<path class="st20" d="M552.3,140.2l255-134.4l251.1,141l-54.9-6.1c0,0,93.2,37.6,86.4,37.3c-13.3-0.5-148.2-31.2-148.2-31.2
						s51.5,34.4,46.6,35.1c-8.2,1.2-94-43.7-94-43.7s25,45.2,21.2,43.7c-8.4-3.2-59.3-46.2-59.3-46.2s-4.2,47.6-7.1,48.6
						s-25.6-49.5-25.6-49.5s-22.4,50.6-26.6,52.5s-13.6-51.6-13.6-51.6s-41.4,36.3-43.6,31.7c-1.6-3.1,11.4-42.7,11.4-42.7
						s-88.2,40.2-104.2,39.8c-7-0.2,58.5-59.2,58.5-59.2s-108.2,60.1-126.2,59.2c-3.3-0.2,43.2-46.6,43.2-46.6L552.3,140.2z"/>
				</g>
			</g>
			<path class="st21" d="M782.6,104.2c7.9-2.8,23.3-52.6,15.4-54.9s-59,26.5-56.1,27.5s30.7-9.2,36.5-8.7
				C781.8,68.4,779.8,105.2,782.6,104.2z"/>
			<path class="st21" d="M824.1,82.2c-4.6,0-11-29.4-6.6-30.5s30.7,12,29.5,13.1s-16.8-3.2-20-3.1S825.5,82.2,824.1,82.2z"/>
			
				<linearGradient id="SVGID_00000072271182248006765030000009926475580386893759_" gradientUnits="userSpaceOnUse" x1="1392.25" y1="130.81" x2="1392.25" y2="239.87" gradientTransform="matrix(1 0 0 -1 0 376)">
				<stop  offset="0" style="stop-color:#365DC6;stop-opacity:0"/>
				<stop  offset="1" style="stop-color:#365DC6;stop-opacity:0.6"/>
			</linearGradient>
			<path style="fill-rule:evenodd;clip-rule:evenodd;fill:url(#SVGID_00000072271182248006765030000009926475580386893759_);" d="
				M1250.2,171.2c38.3-3.2,112.8,37.4,150.8,30.9c33.1-5.6,105.9-62.6,149-62.6c72.7,0,208.4,119,208.4,119h-732.3
				C1026.1,258.5,1190.3,176.3,1250.2,171.2z"/>
			<polygon class="st12" points="0,258.5 3000,258.6 3000,375 0,375 			"/>
			
				<linearGradient id="SVGID_00000162326298587645052700000012739581585584850581_" gradientUnits="userSpaceOnUse" x1="1500" y1="-57.15" x2="1500" y2="202.14" gradientTransform="matrix(1 0 0 -1 0 376)">
				<stop  offset="0" style="stop-color:#00D9E8;stop-opacity:0.5"/>
				<stop  offset="0.5" style="stop-color:#FFB500;stop-opacity:0"/>
				<stop  offset="1" style="stop-color:#E7007D;stop-opacity:0.5"/>
			</linearGradient>
			
				<polygon style="fill-rule:evenodd;clip-rule:evenodd;fill:url(#SVGID_00000162326298587645052700000012739581585584850581_);" points="
				0,258.5 3000,258.6 3000,375 0,375 			"/>
			<g class="st24">
				
					<linearGradient id="SVGID_00000024719611578239490190000006488958107251061415_" gradientUnits="userSpaceOnUse" x1="0" y1="59.25" x2="3000" y2="59.25" gradientTransform="matrix(1 0 0 -1 0 376)">
					<stop  offset="0" style="stop-color:#E7007D;stop-opacity:0.3"/>
					<stop  offset="0.5" style="stop-color:#FFB500;stop-opacity:0.2"/>
					<stop  offset="1" style="stop-color:#365DC6;stop-opacity:0.4"/>
				</linearGradient>
				
					<polygon style="fill-rule:evenodd;clip-rule:evenodd;fill:url(#SVGID_00000024719611578239490190000006488958107251061415_);" points="
					0,258.5 3000,258.6 3000,375 0,375 				"/>
			</g>
			
				<linearGradient id="SVGID_00000096052372250606673240000017230833305156143766_" gradientUnits="userSpaceOnUse" x1="1600.0437" y1="-10.1203" x2="1763.2437" y2="57.0797" gradientTransform="matrix(1 0 0 -1 0 376)">
				<stop  offset="0" style="stop-color:#FFFFFF;stop-opacity:0.5"/>
				<stop  offset="1" style="stop-color:#FFFFFF;stop-opacity:0"/>
			</linearGradient>
			<path style="fill-rule:evenodd;clip-rule:evenodd;fill:url(#SVGID_00000096052372250606673240000017230833305156143766_);" d="
				M1640.8,258.6c0,0,49,3,33,12.3c-7.8,4.5-86.2,1.9-84.2,18.3c3.1,24.9,168.6,28.7,168.6,28.7s-72.8,13.4-58.3,29.8
				s222.8,16.3,222.8,16.3l-150.9-105.4H1640.8z"/>
			
				<linearGradient id="SVGID_00000064353362084441589650000009055759591717144254_" gradientUnits="userSpaceOnUse" x1="2377.9436" y1="-10.1203" x2="2541.1436" y2="57.0797" gradientTransform="matrix(1 0 0 -1 0 376)">
				<stop  offset="0" style="stop-color:#FFFFFF;stop-opacity:0.5"/>
				<stop  offset="1" style="stop-color:#FFFFFF;stop-opacity:0"/>
			</linearGradient>
			<path style="fill-rule:evenodd;clip-rule:evenodd;fill:url(#SVGID_00000064353362084441589650000009055759591717144254_);" d="
				M2418.7,258.6c0,0,49,3,33,12.3c-7.8,4.5-86.2,1.9-84.2,18.3c3.1,24.9,168.6,28.7,168.6,28.7s-72.8,13.4-58.3,29.8
				s222.8,16.3,222.8,16.3l-150.9-105.4H2418.7z"/>
			
				<linearGradient id="SVGID_00000056426904287412818150000016354716329458845345_" gradientUnits="userSpaceOnUse" x1="1165.8887" y1="-56.1225" x2="1335.7086" y2="13.7974" gradientTransform="matrix(1 0 0 -1 0 376)">
				<stop  offset="0" style="stop-color:#FFFFFF;stop-opacity:0.5"/>
				<stop  offset="1" style="stop-color:#FFFFFF;stop-opacity:0"/>
			</linearGradient>
			<path style="fill-rule:evenodd;clip-rule:evenodd;fill:url(#SVGID_00000056426904287412818150000016354716329458845345_);" d="
				M1320.3,310.8c0,0-171-1.3-165.6,20.2c2.2,8.7,109.4,11.4,109.4,11.4s-45.2,6.6-41.7,18.7c4.9,17.5,73.9,9.6,73.9,9.6
				s-37.5,12-32.7,20.3c9.5,16.7,236.4,14.1,236.4,14.1L1320.3,310.8z"/>
			
				<linearGradient id="SVGID_00000011748797312500772950000004380626724572268434_" gradientUnits="userSpaceOnUse" x1="346.5607" y1="-10.1132" x2="509.7607" y2="57.0868" gradientTransform="matrix(1 0 0 -1 0 376)">
				<stop  offset="0" style="stop-color:#FFFFFF;stop-opacity:0.5"/>
				<stop  offset="1" style="stop-color:#FFFFFF;stop-opacity:0"/>
			</linearGradient>
			<path style="fill-rule:evenodd;clip-rule:evenodd;fill:url(#SVGID_00000011748797312500772950000004380626724572268434_);" d="
				M387.3,258.6c0,0,49,3,33,12.3c-7.7,4.5-86.2,1.9-84.1,18.3c3.1,24.9,168.5,28.7,168.5,28.7s-72.8,13.4-58.3,29.8
				S669.2,364,669.2,364L518.3,258.6H387.3z"/>
			
				<linearGradient id="SVGID_00000118366521481478580040000013450468301653578663_" gradientUnits="userSpaceOnUse" x1="2811.9094" y1="-10.1343" x2="2975.1096" y2="57.0657" gradientTransform="matrix(1 0 0 -1 0 376)">
				<stop  offset="1.000000e-02" style="stop-color:#FFFFFF;stop-opacity:0.7"/>
				<stop  offset="1" style="stop-color:#FFFFFF;stop-opacity:0"/>
			</linearGradient>
			
				<path style="opacity:0.3;fill-rule:evenodd;clip-rule:evenodd;fill:url(#SVGID_00000118366521481478580040000013450468301653578663_);enable-background:new    ;" d="
				M2852.7,258.6c0,0,49,3,33,12.3c-7.8,4.5-86.2,1.9-84.2,18.3c3.1,24.9,168.6,28.7,168.6,28.7s-72.9,13.4-58.3,29.8
				s222.8,16.3,222.8,16.3l-151-105.4H2852.7z"/>
			<g class="st2">
				<polygon class="st12" points="1901.7,307 1901.7,272.3 1885.6,306.4 				"/>
				<polygon class="st12" points="1901.9,266.9 1901.9,304.1 1920.2,304 				"/>
				<polygon class="st12" points="1921.3,314.1 1888,314.1 1885.6,309.3 1923.5,309.3 				"/>
				<polygon class="st31" points="1901.7,307 1901.7,272.3 1885.6,306.4 				"/>
				<polygon class="st32" points="1901.9,266.9 1901.9,304.1 1920.2,304 				"/>
				
					<linearGradient id="SVGID_00000167359579714953567240000003887433258951513003_" gradientUnits="userSpaceOnUse" x1="1885.6" y1="64.3" x2="1923.5" y2="64.3" gradientTransform="matrix(1 0 0 -1 0 376)">
					<stop  offset="0" style="stop-color:#365DC6;stop-opacity:0.76"/>
					<stop  offset="1" style="stop-color:#230B45"/>
				</linearGradient>
				
					<polygon style="fill-rule:evenodd;clip-rule:evenodd;fill:url(#SVGID_00000167359579714953567240000003887433258951513003_);" points="
					1921.3,314.1 1888,314.1 1885.6,309.3 1923.5,309.3 				"/>
			</g>
			<path class="st20" d="M0,178.7c0,0,40-8.4,75.6,3.7c47.6,16.2,51,43.8,90.2,62.6c21,10,59.6,13.4,88.7,20.5
				c33.2,8.1,60.4,52.4,60.4,52.4H0V178.7z"/>
			
				<linearGradient id="SVGID_00000119107114444971542130000004359563229729507762_" gradientUnits="userSpaceOnUse" x1="31.9045" y1="56.5844" x2="354.9146" y2="239.5544" gradientTransform="matrix(1 0 0 -1 0 376)">
				<stop  offset="0" style="stop-color:#365DC6"/>
				<stop  offset="1" style="stop-color:#E7007D;stop-opacity:0"/>
			</linearGradient>
			
				<path style="opacity:0.6;fill-rule:evenodd;clip-rule:evenodd;fill:url(#SVGID_00000119107114444971542130000004359563229729507762_);enable-background:new    ;" d="
				M0,178.7c0,0,40-8.4,75.6,3.7c47.6,16.2,51,43.8,90.2,62.6c21,10,59.6,13.4,88.7,20.5c33.2,8.1,60.4,52.4,60.4,52.4H0V178.7z"/>
			
				<linearGradient id="SVGID_00000030470651162700041400000015679248379827732409_" gradientUnits="userSpaceOnUse" x1="2201.9502" y1="282.84" x2="2201.9502" y2="40.97" gradientTransform="matrix(1 0 0 -1 0 376)">
				<stop  offset="0" style="stop-color:#365DC6;stop-opacity:0.76"/>
				<stop  offset="1" style="stop-color:#FFFFFF;stop-opacity:0.9"/>
			</linearGradient>
			
				<path style="opacity:0.9;fill-rule:evenodd;clip-rule:evenodd;fill:url(#SVGID_00000030470651162700041400000015679248379827732409_);enable-background:new    ;" d="
				M2735.5,258.5c0,0-110.5-136.3-232.4-137.4c-81.1-0.8-117.5,42.5-212.9,49.2c-64.4,4.5-136.7-54.9-201.5-56.2
				c-101-2-88.2,62.1-420.3,144.4H2735.5z"/>
			
				<linearGradient id="SVGID_00000137124949235412731350000018360054486804427152_" gradientUnits="userSpaceOnUse" x1="2516.3201" y1="253.1723" x2="2691.6599" y2="153.2223" gradientTransform="matrix(1 0 0 -1 0 376)">
				<stop  offset="0" style="stop-color:#FFFFFF;stop-opacity:0.5"/>
				<stop  offset="1" style="stop-color:#FFFFFF;stop-opacity:0"/>
			</linearGradient>
			
				<path style="opacity:0.6;fill-rule:evenodd;clip-rule:evenodd;fill:url(#SVGID_00000137124949235412731350000018360054486804427152_);enable-background:new    ;" d="
				M2736.9,259.1c0,0-114.7-71.5-160.3-85.1c-42.5-12.7-59-26.6-56.5-40.3c1.3-6.9,10.7-10.2,17.7-8.8
				C2642.7,145.9,2736.9,259.1,2736.9,259.1z"/>
			<path class="st12" d="M2790.8,258.6c0,0-60.4-20.5-81.3-20.8c-24.9-0.3-97.2,20.8-97.2,20.8s-148.7-44.1-199.9-44.8
				c-47.5-0.6-140.6,27.8-187.7,29.7c-19.7,0.9-68.1-6.4-87.8-5.4c-33.9,1.6-124.2,20.5-124.2,20.5H2790.8z"/>
			
				<linearGradient id="SVGID_00000152230325326219378960000016690770104022618046_" gradientUnits="userSpaceOnUse" x1="2401.75" y1="-16.54" x2="2401.75" y2="197.99" gradientTransform="matrix(1 0 0 -1 0 376)">
				<stop  offset="0" style="stop-color:#365DC6;stop-opacity:0.1"/>
				<stop  offset="1" style="stop-color:#230B45"/>
			</linearGradient>
			
				<path style="opacity:0.9;fill-rule:evenodd;clip-rule:evenodd;fill:url(#SVGID_00000152230325326219378960000016690770104022618046_);enable-background:new    ;" d="
				M2790.8,258.6c0,0-60.4-20.5-81.3-20.8c-24.9-0.3-97.2,20.8-97.2,20.8s-148.7-44.1-199.9-44.8c-47.5-0.6-140.6,27.8-187.7,29.7
				c-19.7,0.9-68.1-6.4-87.8-5.4c-33.9,1.6-124.2,20.5-124.2,20.5H2790.8z"/>
			<g class="st24">
				<polygon class="st12" points="665.3,334.3 665.3,299.7 649.2,333.8 				"/>
				<polygon class="st12" points="665.5,294.2 665.5,331.5 683.8,331.3 				"/>
				<polygon class="st12" points="684.9,341.5 651.5,341.5 649.2,336.6 687,336.6 				"/>
				<polygon class="st31" points="665.3,334.3 665.3,299.7 649.2,333.8 				"/>
				<polygon class="st32" points="665.5,294.2 665.5,331.5 683.8,331.3 				"/>
				
					<linearGradient id="SVGID_00000022532117558993742980000016370163258550790836_" gradientUnits="userSpaceOnUse" x1="649.16" y1="36.95" x2="687.04" y2="36.95" gradientTransform="matrix(1 0 0 -1 0 376)">
					<stop  offset="0" style="stop-color:#365DC6;stop-opacity:0.76"/>
					<stop  offset="1" style="stop-color:#230B45"/>
				</linearGradient>
				
					<polygon style="fill-rule:evenodd;clip-rule:evenodd;fill:url(#SVGID_00000022532117558993742980000016370163258550790836_);" points="
					684.9,341.5 651.5,341.5 649.2,336.6 687,336.6 				"/>
			</g>
			
				<linearGradient id="SVGID_00000145027948303646677050000003254650495009383081_" gradientUnits="userSpaceOnUse" x1="1148.3053" y1="-133.6765" x2="1145.2653" y2="-170.9265" gradientTransform="matrix(0.87 0.14 0.16 -0.99 -99.84 22.44)">
				<stop  offset="0" style="stop-color:#FFFFFF;stop-opacity:0"/>
				<stop  offset="1" style="stop-color:#FFFFFF;stop-opacity:0.6"/>
			</linearGradient>
			
				<path style="opacity:0.9;fill-rule:evenodd;clip-rule:evenodd;fill:url(#SVGID_00000145027948303646677050000003254650495009383081_);enable-background:new    ;" d="
				M707,273.9c0,0-10.2,20.3,48.5,37.9c17.1,5.2,65.2,3.7,80.2,6.7c41.7,8.3,46,25.9,84.8,37.4c44.8,13.4,131.3-11.8,131.3-11.8
				L707,273.9z"/>
			<path class="st12" d="M1009.9,298.8c0,0,149.1-53.3,170.6-55.2c9.1-0.8,34.5,10.3,46.4,11.7c9.6,1.2,29.1-4.1,38.8-3.7
				c12,0.4,67.3,24.9,90.9,26.6c8.1,0.5,23.6-7,31.7-7c15-0.1,172.8,27.6,172.8,27.6H1009.9z"/>
			
				<linearGradient id="SVGID_00000076566729150509525130000004076342536513866912_" gradientUnits="userSpaceOnUse" x1="1285.5" y1="182.73" x2="1285.5" y2="-43.5" gradientTransform="matrix(1 0 0 -1 0 376)">
				<stop  offset="0" style="stop-color:#365DC6;stop-opacity:0.76"/>
				<stop  offset="1" style="stop-color:#FFFFFF;stop-opacity:0.9"/>
			</linearGradient>
			<path style="fill-rule:evenodd;clip-rule:evenodd;fill:url(#SVGID_00000076566729150509525130000004076342536513866912_);" d="
				M1009.9,298.8c0,0,149.1-53.3,170.6-55.2c9.1-0.8,34.5,10.3,46.4,11.7c9.6,1.2,29.1-4.1,38.8-3.7c12,0.4,67.3,24.9,90.9,26.6
				c8.1,0.5,23.6-7,31.7-7c15-0.1,172.8,27.6,172.8,27.6H1009.9z"/>
			<path class="st41" d="M2710.7,101.6l20.5,9.6l9.6-20.5c-9,3.6-10.9,17-10.9,17S2719.9,98.5,2710.7,101.6z"/>
			<path class="st42" d="M2674.7,132.3l12,5.5l5.5-11.9c-5.2,2.1-6.3,9.9-6.3,9.9S2680.1,130.5,2674.7,132.3z"/>
			<path class="st43" d="M2768.3,135.2l16.6,7.8l7.8-16.7c-7.2,3-8.8,13.8-8.8,13.8S2775.8,132.7,2768.3,135.2z"/>
			<path class="st44" d="M871.9,79.7h168c0,0-12.9-25.6-46.7-25.6c-24.1,0-44.8,16.3-44.8,16.3c-11.7-5-24.3-7.4-37-7
				C886.5,64.5,871.9,79.7,871.9,79.7z"/>
			<path class="st43" d="M936.8,37.6l10.6,15l15-10.5c-7.7-1.1-14.5,7.6-14.5,7.6S944.6,39.1,936.8,37.6z"/>
			<polygon class="st21" points="1153.1,248 1148.7,260.9 1157.5,260.9 			"/>
			<polygon class="st21" points="1176.1,255 1171.7,267.9 1180.5,267.9 			"/>
			<polygon class="st21" points="1198.1,244 1193.7,256.9 1202.5,256.9 			"/>
			<polygon class="st21" points="1288.1,264 1283.7,276.9 1292.5,276.9 			"/>
			<polygon class="st21" points="1328.1,264 1323.7,276.9 1332.5,276.9 			"/>
			<polygon class="st21" points="1419.1,274 1414.7,286.9 1423.5,286.9 			"/>
			<polygon class="st21" points="1442.1,272 1437.7,284.9 1446.5,284.9 			"/>
			<polygon class="st21" points="1401.1,267 1396.7,279.9 1405.5,279.9 			"/>
			
				<linearGradient id="SVGID_00000151502369131515530560000000364450130342889913_" gradientUnits="userSpaceOnUse" x1="-4743.7383" y1="2420.0422" x2="-4743.2783" y2="2420.0422" gradientTransform="matrix(0 196.07 -196.07 0 474751.3125 930256.9375)">
				<stop  offset="0" style="stop-color:#FFB500;stop-opacity:0.49"/>
				<stop  offset="1" style="stop-color:#E7007D;stop-opacity:0"/>
			</linearGradient>
			<circle style="fill:url(#SVGID_00000151502369131515530560000000364450130342889913_);" cx="253.6" cy="194.6" r="65.2"/>
			<path class="st44" d="M138.5,188.4l124,0.4c0,0-3.4-15.8-22.8-16.4c-15.5-0.4-23.6,12.9-23.6,12.9s-10.3-24.5-43.1-24.8
				C146,160.3,138.5,188.4,138.5,188.4z"/>
			<path class="st41" d="M359.1,129.4l12,12l12-12c-7.3,0.3-12,9.2-12,9.2S366.4,129.6,359.1,129.4z"/>
			<path class="st42" d="M352.8,156.6l9.3,9.3l9.3-9.3c-5.6,0.3-9.3,7.2-9.3,7.2S358.4,156.8,352.8,156.6z"/>
			<path class="st46" d="M322.6,140.8l13,13l13-13c-7.9,0.3-13,10-13,10S330.5,141,322.6,140.8z"/>
			<path class="st44" d="M1912.3,161.6c-38.6,0.1-51.5,18.1-51.5,18.1h97.1C1957.9,179.7,1943.5,161.6,1912.3,161.6z"/>
			<polygon class="st31" points="2304.3,226.3 2301.3,235.2 2307.4,235.2 			"/>
			<polygon class="st31" points="2111.9,236.2 2108.8,245.2 2114.9,245.2 			"/>
			<polygon class="st31" points="2136.9,232.8 2133.8,241.8 2139.9,241.8 			"/>
			<polygon class="st31" points="2154.3,242.7 2151.3,251.6 2157.3,251.6 			"/>
			<polygon class="st31" points="2354.6,239.7 2351.5,248.7 2357.6,248.7 			"/>
			<polygon class="st31" points="2423.9,210 2420.9,219 2427,219 			"/>
			<polygon class="st31" points="2471.5,220.8 2468.4,229.7 2474.5,229.7 			"/>
			<polygon class="st31" points="2492.9,225.9 2489.8,234.8 2495.9,234.8 			"/>
			<polygon class="st31" points="2529,230.4 2525.9,239.3 2532,239.3 			"/>
			<polygon class="st31" points="2738.5,238.2 2735.5,247.2 2741.5,247.2 			"/>
			<polygon class="st31" points="2668.8,245.6 2665.7,254.5 2671.8,254.5 			"/>
			<polygon class="st31" points="2760.8,245.7 2757.7,254.6 2763.8,254.6 			"/>
			<path class="st44" d="M1550.3,114.3h273.2c-16.6-9.1-38.8-5.4-38.8-5.4s-2.1-29.9-28.2-38.8c-21.9-7.5-40.1,3.6-40.1,3.6
				s-11.7-31.9-48.8-34.3c-46.2-2.9-54,43.5-54,43.5s-12.3-7.3-33-1.5C1553.7,89,1550.3,114.3,1550.3,114.3z"/>
			<path class="st44" d="M1705.8,47c0,0,10.5,2.8,12.9,17.5c14.1-8.6,27.1-5,27.1-5s-11.9-6.8-25.1-0.5
				C1717.8,47.3,1705.8,47,1705.8,47z"/>
			
				<linearGradient id="SVGID_00000115487987710731553700000016752741256237304239_" gradientUnits="userSpaceOnUse" x1="2799.9194" y1="53.8479" x2="2797.2795" y2="21.4679" gradientTransform="matrix(0.86 0.21 0.23 -0.97 -267.9 -216.2799)">
				<stop  offset="0" style="stop-color:#FFFFFF;stop-opacity:0"/>
				<stop  offset="1" style="stop-color:#FFFFFF;stop-opacity:0.6"/>
			</linearGradient>
			
				<path style="opacity:0.9;fill-rule:evenodd;clip-rule:evenodd;fill:url(#SVGID_00000115487987710731553700000016752741256237304239_);enable-background:new    ;" d="
				M2008,269.3c0,0-10.3,16.8,39.4,36.2c14.4,5.6,56.3,7.5,69.1,11.1c35.5,10.1,38,25.6,70.9,38.3c37.9,14.6,114.6-1.3,114.6-1.3
				L2008,269.3z"/>
		</g>
	</g>
</g>
</svg>
