<svg id="Layer_1" data-name="Layer 1" xmlns="http://www.w3.org/2000/svg" xmlns:xlink="http://www.w3.org/1999/xlink" viewBox="0 0 3000 375"><defs><style>.cls-1,.cls-2{fill:none;}.cls-2{clip-rule:evenodd;}.cls-3{clip-path:url(#clip-path);}.cls-24,.cls-4,.cls-48{fill:#fff;}.cls-10,.cls-11,.cls-12,.cls-13,.cls-14,.cls-15,.cls-16,.cls-17,.cls-18,.cls-19,.cls-20,.cls-22,.cls-24,.cls-25,.cls-26,.cls-27,.cls-29,.cls-30,.cls-31,.cls-32,.cls-33,.cls-34,.cls-35,.cls-36,.cls-37,.cls-38,.cls-39,.cls-4,.cls-40,.cls-41,.cls-42,.cls-43,.cls-44,.cls-45,.cls-46,.cls-47,.cls-48,.cls-5,.cls-50,.cls-51,.cls-6{fill-rule:evenodd;}.cls-5,.cls-8{opacity:0.6;}.cls-5{fill:url(#linear-gradient);}.cls-34,.cls-6{opacity:0.3;}.cls-6{fill:url(#linear-gradient-2);}.cls-7{clip-path:url(#clip-path-2);}.cls-9{fill:url(#linear-gradient-3);}.cls-10{opacity:0.55;fill:url(#linear-gradient-4);}.cls-11,.cls-12{opacity:0.65;}.cls-11{fill:url(#linear-gradient-5);}.cls-12{fill:url(#linear-gradient-6);}.cls-13,.cls-14,.cls-46{fill:#ffb500;}.cls-13,.cls-18,.cls-21{opacity:0.3;}.cls-14,.cls-15{opacity:0.1;}.cls-15,.cls-47{fill:#00d9e8;}.cls-16{fill:url(#linear-gradient-7);}.cls-17{fill:url(#linear-gradient-8);}.cls-18{fill:url(#linear-gradient-9);}.cls-19{opacity:0.25;fill:url(#linear-gradient-10);}.cls-20{opacity:0.15;fill:url(#linear-gradient-11);}.cls-22{fill:url(#linear-gradient-12);}.cls-23{clip-path:url(#clip-path-3);}.cls-24,.cls-36,.cls-45,.cls-46,.cls-47,.cls-50{opacity:0.4;}.cls-25,.cls-45{fill:#365dc6;}.cls-25,.cls-35{opacity:0.2;}.cls-26{fill:url(#linear-gradient-13);}.cls-27{fill:url(#linear-gradient-14);}.cls-28{opacity:0.7;}.cls-29{fill:url(#linear-gradient-15);}.cls-30{fill:url(#linear-gradient-16);}.cls-31{fill:url(#linear-gradient-17);}.cls-32{fill:url(#linear-gradient-18);}.cls-33{fill:url(#linear-gradient-19);}.cls-34{fill:url(#linear-gradient-20);}.cls-35,.cls-36{fill:#230b45;}.cls-37{fill:url(#linear-gradient-21);}.cls-38,.cls-40{opacity:0.6;}.cls-38{fill:url(#linear-gradient-22);}.cls-39,.cls-41,.cls-43,.cls-51{opacity:0.9;}.cls-39{fill:url(#linear-gradient-23);}.cls-40{fill:url(#linear-gradient-24);}.cls-41{fill:url(#linear-gradient-25);}.cls-42{fill:url(#linear-gradient-26);}.cls-43{fill:url(#linear-gradient-27);}.cls-44{fill:url(#linear-gradient-28);}.cls-48{opacity:0.8;}.cls-49{fill:url(#linear-gradient-29);}.cls-50{fill:#e7007d;}.cls-51{fill:url(#linear-gradient-30);}</style><clipPath id="clip-path"><rect class="cls-1" x="-3020" width="3000" height="375"/></clipPath><linearGradient id="linear-gradient" x1="-311.27" y1="174.95" x2="-311.27" y2="297.39" gradientUnits="userSpaceOnUse"><stop offset="0" stop-color="#365dc6" stop-opacity="0.76"/><stop offset="1" stop-color="#fff" stop-opacity="0.9"/></linearGradient><linearGradient id="linear-gradient-2" x1="-218.08" y1="386.16" x2="-54.88" y2="318.96" gradientUnits="userSpaceOnUse"><stop offset="0.01" stop-color="#fff" stop-opacity="0.7"/><stop offset="1" stop-color="#fff" stop-opacity="0"/></linearGradient><clipPath id="clip-path-2"><rect class="cls-1" width="3000" height="375"/></clipPath><linearGradient id="linear-gradient-3" x1="-5258.28" y1="757.26" x2="-5257.78" y2="757.26" gradientTransform="matrix(0, 513.57, 513.56, 0, -387401.2, 2700471.36)" gradientUnits="userSpaceOnUse"><stop offset="0" stop-color="#00d9e8" stop-opacity="0.5"/><stop offset="0.5" stop-color="#ffb500" stop-opacity="0"/><stop offset="1" stop-color="#e7007d" stop-opacity="0.5"/></linearGradient><linearGradient id="linear-gradient-4" x1="495.23" y1="36.72" x2="604.78" y2="177.89" gradientUnits="userSpaceOnUse"><stop offset="0" stop-color="#00d9e8" stop-opacity="0.3"/><stop offset="1" stop-color="#fff" stop-opacity="0"/></linearGradient><linearGradient id="linear-gradient-5" x1="73.55" y1="78.81" x2="-2.12" y2="180.45" xlink:href="#linear-gradient-4"/><linearGradient id="linear-gradient-6" x1="2159.82" y1="1046.18" x2="2008.48" y2="1199.78" gradientTransform="translate(1147.9 1778.7) rotate(-73)" xlink:href="#linear-gradient-4"/><linearGradient id="linear-gradient-7" x1="2787.38" y1="249.56" x2="2787.38" y2="163.35" gradientUnits="userSpaceOnUse"><stop offset="0" stop-color="#365dc6" stop-opacity="0"/><stop offset="1" stop-color="#365dc6" stop-opacity="0.6"/></linearGradient><linearGradient id="linear-gradient-8" x1="801.1" y1="20.93" x2="801.1" y2="354.98" xlink:href="#linear-gradient"/><linearGradient id="linear-gradient-9" x1="1295.84" y1="155.92" x2="254.53" y2="143.5" gradientUnits="userSpaceOnUse"><stop offset="0" stop-color="#365dc6" stop-opacity="0.76"/><stop offset="1" stop-color="#e7007d" stop-opacity="0.6"/></linearGradient><linearGradient id="linear-gradient-10" x1="1249.95" y1="289.93" x2="948.13" y2="148.29" gradientUnits="userSpaceOnUse"><stop offset="0" stop-color="#365dc6" stop-opacity="0.1"/><stop offset="1" stop-color="#365dc6" stop-opacity="0.6"/></linearGradient><linearGradient id="linear-gradient-11" x1="-9848.57" y1="290.16" x2="-10151.82" y2="147.85" gradientTransform="matrix(-1, 0, 0, 1, -9501.28, 0)" xlink:href="#linear-gradient-10"/><linearGradient id="linear-gradient-12" x1="845.42" y1="295.48" x2="845.42" y2="185.94" xlink:href="#linear-gradient-7"/><clipPath id="clip-path-3"><path class="cls-2" d="M248.8,258.5S370.2,228.3,671.6,85.1C722.9,60.7,773.5,35.1,808,35c26.5-.1,35.4,9.5,100.9,41.3,375.6,182.2,444.5,182.2,444.5,182.2Z"/></clipPath><linearGradient id="linear-gradient-13" x1="1392.28" y1="245.19" x2="1392.28" y2="136.13" xlink:href="#linear-gradient-7"/><linearGradient id="linear-gradient-14" x1="1500" y1="433.15" x2="1500" y2="173.86" gradientTransform="matrix(1, 0, 0, 1, 0, 0)" xlink:href="#linear-gradient-3"/><linearGradient id="linear-gradient-15" x1="0.04" y1="316.75" x2="2999.96" y2="316.75" gradientUnits="userSpaceOnUse"><stop offset="0" stop-color="#e7007d" stop-opacity="0.3"/><stop offset="0.5" stop-color="#ffb500" stop-opacity="0.2"/><stop offset="1" stop-color="#365dc6" stop-opacity="0.4"/></linearGradient><linearGradient id="linear-gradient-16" x1="1600.06" y1="386.16" x2="1763.26" y2="318.96" gradientUnits="userSpaceOnUse"><stop offset="0" stop-color="#fff" stop-opacity="0.5"/><stop offset="1" stop-color="#fff" stop-opacity="0"/></linearGradient><linearGradient id="linear-gradient-17" x1="2377.96" y1="386.16" x2="2541.16" y2="318.96" xlink:href="#linear-gradient-16"/><linearGradient id="linear-gradient-18" x1="1165.9" y1="432.15" x2="1335.72" y2="362.23" xlink:href="#linear-gradient-16"/><linearGradient id="linear-gradient-19" x1="346.58" y1="386.16" x2="509.78" y2="318.96" xlink:href="#linear-gradient-16"/><linearGradient id="linear-gradient-20" x1="2811.92" y1="386.16" x2="2975.12" y2="318.96" xlink:href="#linear-gradient-2"/><linearGradient id="linear-gradient-21" x1="1885.58" y1="311.69" x2="1923.46" y2="311.69" gradientUnits="userSpaceOnUse"><stop offset="0" stop-color="#365dc6" stop-opacity="0.76"/><stop offset="1" stop-color="#230b45"/></linearGradient><linearGradient id="linear-gradient-22" x1="31.89" y1="319.39" x2="354.9" y2="136.42" gradientUnits="userSpaceOnUse"><stop offset="0" stop-color="#365dc6"/><stop offset="1" stop-color="#e7007d" stop-opacity="0"/></linearGradient><linearGradient id="linear-gradient-23" x1="2201.94" y1="93.16" x2="2201.94" y2="335.03" xlink:href="#linear-gradient"/><linearGradient id="linear-gradient-24" x1="2516.33" y1="122.81" x2="2691.67" y2="222.76" xlink:href="#linear-gradient-16"/><linearGradient id="linear-gradient-25" x1="2401.75" y1="392.54" x2="2401.75" y2="178.01" gradientUnits="userSpaceOnUse"><stop offset="0" stop-color="#365dc6" stop-opacity="0.1"/><stop offset="1" stop-color="#230b45"/></linearGradient><linearGradient id="linear-gradient-26" x1="649.16" y1="339.04" x2="687.04" y2="339.04" xlink:href="#linear-gradient-21"/><linearGradient id="linear-gradient-27" x1="694.68" y1="473.68" x2="691.64" y2="510.93" gradientTransform="matrix(0.87, 0.14, -0.16, 0.99, 345.24, -251.68)" gradientUnits="userSpaceOnUse"><stop offset="0" stop-color="#fff" stop-opacity="0"/><stop offset="1" stop-color="#fff" stop-opacity="0.6"/></linearGradient><linearGradient id="linear-gradient-28" x1="1285.49" y1="193.27" x2="1285.49" y2="419.5" xlink:href="#linear-gradient"/><linearGradient id="linear-gradient-29" x1="-5258.08" y1="770.49" x2="-5257.62" y2="770.49" gradientTransform="matrix(0, 196.07, 196.07, 0, -150819.88, 1031103.95)" gradientUnits="userSpaceOnUse"><stop offset="0" stop-color="#ffb500" stop-opacity="0.49"/><stop offset="1" stop-color="#e7007d" stop-opacity="0"/></linearGradient><linearGradient id="linear-gradient-30" x1="2116.18" y1="274.83" x2="2113.54" y2="307.21" gradientTransform="matrix(0.86, 0.21, -0.23, 0.97, 395.34, -391.64)" xlink:href="#linear-gradient-27"/></defs><g class="cls-3"><path class="cls-4" d="M-722.5,258.6s157.1-53.3,162.7-54c8.8-1.2,29.8,10.2,40.2,10.3,12.2.1,34.1-14.3,46.3-15.1s71.5,24.5,84.7,24.9c18.1.6,86.7-15,97.2-16.2,12.7-1.4,46.7,8.7,62.1,6.1,6.6-1.1,23-12,33.7-12.3,15.7-.6,95,33.9,116.5,34,15.8,0,108.7-37.6,128.1-37.6,9.4,0,51,26,51,26v33.9Z"/><path class="cls-5" d="M-722.5,258.6s157.1-53.3,162.7-54c8.8-1.2,29.8,10.2,40.2,10.3,12.2.1,34.1-14.3,46.3-15.1s71.5,24.5,84.7,24.9c18.1.6,86.7-15,97.2-16.2,12.7-1.4,46.7,8.7,62.1,6.1,6.6-1.1,23-12,33.7-12.3,15.7-.6,95,33.9,116.5,34,15.8,0,108.7-37.6,128.1-37.6,9.4,0,51,26,51,26v33.9Z"/><path class="cls-6" d="M-177.3,258.6s49,3,33,12.3c-7.8,4.5-86.2,1.9-84.2,18.3,3.1,24.9,168.6,28.7,168.6,28.7s-72.9,13.4-58.3,29.8S104.6,364,104.6,364l-151-105.4Z"/></g><g class="cls-7"><g class="cls-8"><rect class="cls-9" y="0.1" width="2999.9" height="258.49"/></g><rect class="cls-1" width="3000" height="375"/><path class="cls-10" d="M673.3-32.5a94.9,94.9,0,0,0-94.9,94.9,103.4,103.4,0,0,0,.7,11.1,81.9,81.9,0,0,0-26.3-4.3,82.8,82.8,0,0,0-81.6,68.9,73.2,73.2,0,1,0,38.6,84.6A82.7,82.7,0,0,0,635.6,152a22.6,22.6,0,0,0-.1-2.6A94.9,94.9,0,1,0,673.3-32.5Z"/><path class="cls-11" d="M58.6,115.6a66.4,66.4,0,0,0-14.2,1.5,53.7,53.7,0,0,0,.4-7A60.4,60.4,0,0,0-15.6,49.6a60.5,60.5,0,0,0-60.5,60.5,60.4,60.4,0,0,0,60.5,60.4,60,60,0,0,0,10.4-.9,63.5,63.5,0,0,0-.9,10.7,64.8,64.8,0,1,0,64.7-64.7Z"/><path class="cls-12" d="M2878.3,53.7a94.7,94.7,0,0,0-2.5,45.6,95.4,95.4,0,0,0-79.3,61.8,93.3,93.3,0,0,0-26-12.5A95.2,95.2,0,1,0,2832,272.5a96.2,96.2,0,0,0,26,12.5,95.2,95.2,0,0,0,121.3-108.8,95.2,95.2,0,1,0-101-122.5Z"/><path class="cls-13" d="M2303.1,100.2c-81,0-267.8,138-407.1,158.3h754.7C2476.7,179.4,2397.6,100.3,2303.1,100.2Z"/><path class="cls-14" d="M2311.6,100.4c37.2,1.8,77.9,16.6,135,48.9,0,0-63.4.5-104.5-17.7C2326.2,124.6,2303.3,100,2311.6,100.4Z"/><path class="cls-15" d="M1923.5,259.8c-71.5-40.6-124.9-84.9-165.1-84.8-56.5.3-102.1,38.8-197.3,84.8Z"/><path class="cls-16" d="M3000,167.7s-30.3-18.7-74.6-9.4c-36.3,7.6-62.6,50-98.8,56.6-39.9,7.3-76.8-27.4-122.6-25.6-79.6,3.2-129.2,70.5-129.2,70.5H3000Z"/><path class="cls-4" d="M248.8,258.5S370.2,228.3,671.6,85.1C722.9,60.7,773.5,35.1,808,35c26.5-.1,35.4,9.5,100.9,41.3,375.6,182.2,444.5,182.2,444.5,182.2Z"/><path class="cls-17" d="M248.8,258.5S370.2,228.3,671.6,85.1C722.9,60.7,773.5,35.1,808,35c26.5-.1,35.4,9.5,100.9,41.3,375.6,182.2,444.5,182.2,444.5,182.2Z"/><path class="cls-18" d="M248.8,258.5S370.2,228.3,671.6,85.1C722.9,60.7,773.5,35.1,808,35c26.5-.1,35.4,9.5,100.9,41.3,375.6,182.2,444.5,182.2,444.5,182.2Z"/><path class="cls-19" d="M1089.9,258.5s-112.6-11-143.7-33c-14.1-9.9,143.7,20.4,157,11.2,10.9-7.5-43.9-32.2-33.9-40.9,20.6-17.8,102.8,31.3,282.1,62.7Z"/><path class="cls-20" d="M508.8,258.5s112.6-11,143.7-33c14.1-9.9-143.7,20.4-157,11.2-10.9-7.5,43.9-32.2,33.9-40.9-20.6-17.8-105.3,30.1-284.1,62.7Z"/><g class="cls-21"><path class="cls-22" d="M689.7,258.5s90.9-51.5,107-56.2c4.4-1.3,26,8.2,26,8.2s34.9,1,46.3,3.3c34.2,6.9,132.1,44.7,132.1,44.7Z"/></g><g class="cls-23"><path class="cls-24" d="M552.3,140.2,807.3,5.8l251.1,141-54.9-6.1s93.2,37.6,86.4,37.3c-13.3-.5-148.2-31.2-148.2-31.2s51.5,34.4,46.6,35.1c-8.2,1.2-94-43.7-94-43.7s25,45.2,21.2,43.7c-8.4-3.2-59.3-46.2-59.3-46.2s-4.2,47.6-7.1,48.6-25.6-49.5-25.6-49.5-22.4,50.6-26.6,52.5-13.6-51.6-13.6-51.6-41.4,36.3-43.6,31.7c-1.6-3.1,11.4-42.7,11.4-42.7s-88.2,40.2-104.2,39.8c-7-.2,58.5-59.2,58.5-59.2s-108.2,60.1-126.2,59.2c-3.3-.2,43.2-46.6,43.2-46.6Z"/></g><path class="cls-25" d="M782.6,104.2c7.9-2.8,23.3-52.6,15.4-54.9s-59,26.5-56.1,27.5,30.7-9.2,36.5-8.7C781.8,68.4,779.8,105.2,782.6,104.2Z"/><path class="cls-25" d="M824.1,82.2c-4.6,0-11-29.4-6.6-30.5s30.7,12,29.5,13.1-16.8-3.2-20-3.1S825.5,82.2,824.1,82.2Z"/><path class="cls-26" d="M1250.2,171.2c38.3-3.2,112.8,37.4,150.8,30.9,33.1-5.6,105.9-62.6,149-62.6,72.7,0,208.4,119,208.4,119H1026.1S1190.3,176.3,1250.2,171.2Z"/><polygon class="cls-4" points="0 258.5 3000 258.6 3000 375 0 375 0 258.5"/><polygon class="cls-27" points="0 258.5 3000 258.6 3000 375 0 375 0 258.5"/><g class="cls-28"><polygon class="cls-29" points="0 258.5 3000 258.6 3000 375 0 375 0 258.5"/></g><path class="cls-30" d="M1640.8,258.6s49,3,33,12.3c-7.8,4.5-86.2,1.9-84.2,18.3,3.1,24.9,168.6,28.7,168.6,28.7s-72.8,13.4-58.3,29.8S1922.7,364,1922.7,364L1771.8,258.6Z"/><path class="cls-31" d="M2418.7,258.6s49,3,33,12.3c-7.8,4.5-86.2,1.9-84.2,18.3,3.1,24.9,168.6,28.7,168.6,28.7s-72.8,13.4-58.3,29.8S2700.6,364,2700.6,364L2549.7,258.6Z"/><path class="cls-32" d="M1320.3,310.8s-171-1.3-165.6,20.2c2.2,8.7,109.4,11.4,109.4,11.4s-45.2,6.6-41.7,18.7c4.9,17.5,73.9,9.6,73.9,9.6s-37.5,12-32.7,20.3c9.5,16.7,236.4,14.1,236.4,14.1Z"/><path class="cls-33" d="M387.3,258.6s49,3,33,12.3c-7.7,4.5-86.2,1.9-84.1,18.3,3.1,24.9,168.5,28.7,168.5,28.7s-72.8,13.4-58.3,29.8S669.2,364,669.2,364L518.3,258.6Z"/><path class="cls-34" d="M2852.7,258.6s49,3,33,12.3c-7.8,4.5-86.2,1.9-84.2,18.3,3.1,24.9,168.6,28.7,168.6,28.7s-72.9,13.4-58.3,29.8S3134.6,364,3134.6,364l-151-105.4Z"/><g class="cls-8"><polygon class="cls-4" points="1901.7 307 1901.7 272.3 1885.6 306.4 1901.7 307"/><polygon class="cls-4" points="1901.9 266.9 1901.9 304.1 1920.2 304 1901.9 266.9"/><polygon class="cls-4" points="1921.3 314.1 1888 314.1 1885.6 309.3 1923.5 309.3 1921.3 314.1"/><polygon class="cls-35" points="1901.7 307 1901.7 272.3 1885.6 306.4 1901.7 307"/><polygon class="cls-36" points="1901.9 266.9 1901.9 304.1 1920.2 304 1901.9 266.9"/><polygon class="cls-37" points="1921.3 314.1 1888 314.1 1885.6 309.3 1923.5 309.3 1921.3 314.1"/></g><path class="cls-24" d="M0,178.7s40-8.4,75.6,3.7c47.6,16.2,51,43.8,90.2,62.6,21,10,59.6,13.4,88.7,20.5,33.2,8.1,60.4,52.4,60.4,52.4H0Z"/><path class="cls-38" d="M0,178.7s40-8.4,75.6,3.7c47.6,16.2,51,43.8,90.2,62.6,21,10,59.6,13.4,88.7,20.5,33.2,8.1,60.4,52.4,60.4,52.4H0Z"/><path class="cls-39" d="M2735.5,258.5S2625,122.2,2503.1,121.1c-81.1-.8-117.5,42.5-212.9,49.2-64.4,4.5-136.7-54.9-201.5-56.2-101-2-88.2,62.1-420.3,144.4Z"/><path class="cls-40" d="M2736.9,259.1s-114.7-71.5-160.3-85.1c-42.5-12.7-59-26.6-56.5-40.3,1.3-6.9,10.7-10.2,17.7-8.8C2642.7,145.9,2736.9,259.1,2736.9,259.1Z"/><path class="cls-4" d="M2790.8,258.6s-60.4-20.5-81.3-20.8c-24.9-.3-97.2,20.8-97.2,20.8s-148.7-44.1-199.9-44.8c-47.5-.6-140.6,27.8-187.7,29.7-19.7.9-68.1-6.4-87.8-5.4-33.9,1.6-124.2,20.5-124.2,20.5Z"/><path class="cls-41" d="M2790.8,258.6s-60.4-20.5-81.3-20.8c-24.9-.3-97.2,20.8-97.2,20.8s-148.7-44.1-199.9-44.8c-47.5-.6-140.6,27.8-187.7,29.7-19.7.9-68.1-6.4-87.8-5.4-33.9,1.6-124.2,20.5-124.2,20.5Z"/><g class="cls-28"><polygon class="cls-4" points="665.3 334.3 665.3 299.7 649.2 333.8 665.3 334.3"/><polygon class="cls-4" points="665.5 294.2 665.5 331.5 683.8 331.3 665.5 294.2"/><polygon class="cls-4" points="684.9 341.5 651.5 341.5 649.2 336.6 687 336.6 684.9 341.5"/><polygon class="cls-35" points="665.3 334.3 665.3 299.7 649.2 333.8 665.3 334.3"/><polygon class="cls-36" points="665.5 294.2 665.5 331.5 683.8 331.3 665.5 294.2"/><polygon class="cls-42" points="684.9 341.5 651.5 341.5 649.2 336.6 687 336.6 684.9 341.5"/></g><path class="cls-43" d="M707,273.9s-10.2,20.3,48.5,37.9c17.1,5.2,65.2,3.7,80.2,6.7,41.7,8.3,46,25.9,84.8,37.4,44.8,13.4,131.3-11.8,131.3-11.8Z"/><path class="cls-4" d="M1009.9,298.8s149.1-53.3,170.6-55.2c9.1-.8,34.5,10.3,46.4,11.7,9.6,1.2,29.1-4.1,38.8-3.7,12,.4,67.3,24.9,90.9,26.6,8.1.5,23.6-7,31.7-7,15-.1,172.8,27.6,172.8,27.6Z"/><path class="cls-44" d="M1009.9,298.8s149.1-53.3,170.6-55.2c9.1-.8,34.5,10.3,46.4,11.7,9.6,1.2,29.1-4.1,38.8-3.7,12,.4,67.3,24.9,90.9,26.6,8.1.5,23.6-7,31.7-7,15-.1,172.8,27.6,172.8,27.6Z"/><path class="cls-45" d="M2710.7,101.6l20.5,9.6,9.6-20.5c-9,3.6-10.9,17-10.9,17S2719.9,98.5,2710.7,101.6Z"/><path class="cls-46" d="M2674.7,132.3l12,5.5,5.5-11.9c-5.2,2.1-6.3,9.9-6.3,9.9S2680.1,130.5,2674.7,132.3Z"/><path class="cls-47" d="M2768.3,135.2l16.6,7.8,7.8-16.7c-7.2,3-8.8,13.8-8.8,13.8S2775.8,132.7,2768.3,135.2Z"/><path class="cls-48" d="M871.9,79.7h168S1027,54.1,993.2,54.1c-24.1,0-44.8,16.3-44.8,16.3a86.4,86.4,0,0,0-37-7C886.5,64.5,871.9,79.7,871.9,79.7Z"/><path class="cls-47" d="M936.8,37.6l10.6,15,15-10.5c-7.7-1.1-14.5,7.6-14.5,7.6S944.6,39.1,936.8,37.6Z"/><polygon class="cls-25" points="1153.1 248 1148.7 260.9 1157.5 260.9 1153.1 248"/><polygon class="cls-25" points="1176.1 255 1171.7 267.9 1180.5 267.9 1176.1 255"/><polygon class="cls-25" points="1198.1 244 1193.7 256.9 1202.5 256.9 1198.1 244"/><polygon class="cls-25" points="1288.1 264 1283.7 276.9 1292.5 276.9 1288.1 264"/><polygon class="cls-25" points="1328.1 264 1323.7 276.9 1332.5 276.9 1328.1 264"/><polygon class="cls-25" points="1419.1 274 1414.7 286.9 1423.5 286.9 1419.1 274"/><polygon class="cls-25" points="1442.1 272 1437.7 284.9 1446.5 284.9 1442.1 272"/><polygon class="cls-25" points="1401.1 267 1396.7 279.9 1405.5 279.9 1401.1 267"/><circle class="cls-49" cx="253.6" cy="194.6" r="65.2"/><path class="cls-48" d="M138.5,188.4l124,.4s-3.4-15.8-22.8-16.4c-15.5-.4-23.6,12.9-23.6,12.9s-10.3-24.5-43.1-24.8C146,160.3,138.5,188.4,138.5,188.4Z"/><path class="cls-45" d="M359.1,129.4l12,12,12-12c-7.3.3-12,9.2-12,9.2S366.4,129.6,359.1,129.4Z"/><path class="cls-46" d="M352.8,156.6l9.3,9.3,9.3-9.3c-5.6.3-9.3,7.2-9.3,7.2S358.4,156.8,352.8,156.6Z"/><path class="cls-50" d="M322.6,140.8l13,13,13-13c-7.9.3-13,10-13,10S330.5,141,322.6,140.8Z"/><path class="cls-48" d="M1912.3,161.6c-38.6.1-51.5,18.1-51.5,18.1h97.1S1943.5,161.6,1912.3,161.6Z"/><polygon class="cls-35" points="2304.3 226.3 2301.3 235.2 2307.4 235.2 2304.3 226.3"/><polygon class="cls-35" points="2111.9 236.2 2108.8 245.2 2114.9 245.2 2111.9 236.2"/><polygon class="cls-35" points="2136.9 232.8 2133.8 241.8 2139.9 241.8 2136.9 232.8"/><polygon class="cls-35" points="2154.3 242.7 2151.3 251.6 2157.3 251.6 2154.3 242.7"/><polygon class="cls-35" points="2354.6 239.7 2351.5 248.7 2357.6 248.7 2354.6 239.7"/><polygon class="cls-35" points="2423.9 210 2420.9 219 2427 219 2423.9 210"/><polygon class="cls-35" points="2471.5 220.8 2468.4 229.7 2474.5 229.7 2471.5 220.8"/><polygon class="cls-35" points="2492.9 225.9 2489.8 234.8 2495.9 234.8 2492.9 225.9"/><polygon class="cls-35" points="2529 230.4 2525.9 239.3 2532 239.3 2529 230.4"/><polygon class="cls-35" points="2738.5 238.2 2735.5 247.2 2741.5 247.2 2738.5 238.2"/><polygon class="cls-35" points="2668.8 245.6 2665.7 254.5 2671.8 254.5 2668.8 245.6"/><polygon class="cls-35" points="2760.8 245.7 2757.7 254.6 2763.8 254.6 2760.8 245.7"/><path class="cls-48" d="M1550.3,114.3h273.2c-16.6-9.1-38.8-5.4-38.8-5.4s-2.1-29.9-28.2-38.8c-21.9-7.5-40.1,3.6-40.1,3.6s-11.7-31.9-48.8-34.3c-46.2-2.9-54,43.5-54,43.5s-12.3-7.3-33-1.5C1553.7,89,1550.3,114.3,1550.3,114.3Z"/><path class="cls-48" d="M1705.8,47s10.5,2.8,12.9,17.5c14.1-8.6,27.1-5,27.1-5s-11.9-6.8-25.1-.5C1717.8,47.3,1705.8,47,1705.8,47Z"/><path class="cls-51" d="M2008,269.3s-10.3,16.8,39.4,36.2c14.4,5.6,56.3,7.5,69.1,11.1,35.5,10.1,38,25.6,70.9,38.3,37.9,14.6,114.6-1.3,114.6-1.3Z"/></g></svg>