<?xml version="1.0" encoding="utf-8"?>
<!-- Generator: Adobe Illustrator 26.0.3, SVG Export Plug-In . SVG Version: 6.00 Build 0)  -->
<svg version="1.1" id="Layer_1" xmlns="http://www.w3.org/2000/svg" xmlns:xlink="http://www.w3.org/1999/xlink" x="0px" y="0px"
	 viewBox="0 0 3000 375" style="enable-background:new 0 0 3000 375;" xml:space="preserve">
<style type="text/css">
	.st0{clip-path:url(#SVGID_00000153702234643300390570000013566108750824834478_);}
	.st1{opacity:0.6;}
	.st2{fill:url(#SVGID_00000075862923034823153170000006483769699672142745_);}
	.st3{opacity:0.6;fill-rule:evenodd;clip-rule:evenodd;fill:#FFFFFF;enable-background:new    ;}
	.st4{fill-rule:evenodd;clip-rule:evenodd;fill:#FFFFFF;}
	
		.st5{opacity:0.6;fill-rule:evenodd;clip-rule:evenodd;fill:url(#SVGID_00000054242785274130774980000017549688821248602269_);enable-background:new    ;}
	.st6{fill-rule:evenodd;clip-rule:evenodd;fill:url(#SVGID_00000016075663331227670380000005711212997021988269_);}
	.st7{fill-rule:evenodd;clip-rule:evenodd;fill:url(#SVGID_00000080208090092620129100000010823060927738908299_);}
	
		.st8{opacity:0.25;fill-rule:evenodd;clip-rule:evenodd;fill:url(#SVGID_00000180337043814406803450000011816085367305894828_);enable-background:new    ;}
	
		.st9{opacity:0.15;fill-rule:evenodd;clip-rule:evenodd;fill:url(#SVGID_00000083086614638836074360000005225283912823945654_);enable-background:new    ;}
	.st10{fill-rule:evenodd;clip-rule:evenodd;fill:url(#SVGID_00000042717276683412693290000007862330959160462220_);}
	.st11{clip-path:url(#SVGID_00000121274794797315424250000001313356882389318581_);}
	.st12{opacity:0.4;fill-rule:evenodd;clip-rule:evenodd;fill:#FFFFFF;enable-background:new    ;}
	.st13{fill:url(#SVGID_00000043425396904801748110000007286044027877961880_);}
	.st14{fill-rule:evenodd;clip-rule:evenodd;fill:url(#SVGID_00000057144166315821648560000003971764050930533815_);}
	.st15{opacity:0.7;}
	.st16{fill-rule:evenodd;clip-rule:evenodd;fill:url(#SVGID_00000135657389521647888570000004949114418914507659_);}
	.st17{opacity:0.8;fill-rule:evenodd;clip-rule:evenodd;fill:#FFFFFF;enable-background:new    ;}
	.st18{opacity:0.4;fill-rule:evenodd;clip-rule:evenodd;fill:#230B45;enable-background:new    ;}
	.st19{opacity:0.2;fill-rule:evenodd;clip-rule:evenodd;fill:#365DC6;enable-background:new    ;}
	.st20{fill-rule:evenodd;clip-rule:evenodd;fill:url(#SVGID_00000027588251571465988910000014520949817325966743_);}
	.st21{fill-rule:evenodd;clip-rule:evenodd;fill:url(#SVGID_00000108291734857014079170000017398981814376491177_);}
	.st22{fill-rule:evenodd;clip-rule:evenodd;fill:url(#SVGID_00000158711913487444777310000007424615935470582192_);}
	.st23{fill-rule:evenodd;clip-rule:evenodd;fill:url(#SVGID_00000011719503260247532260000001159619746824721573_);}
	.st24{fill-rule:evenodd;clip-rule:evenodd;fill:url(#SVGID_00000018915678730433458660000005575072996145968547_);}
	.st25{fill-rule:evenodd;clip-rule:evenodd;fill:url(#SVGID_00000105384405807948599390000003156247721248978088_);}
	.st26{fill-rule:evenodd;clip-rule:evenodd;fill:url(#SVGID_00000140001836113449446300000000127292194348517778_);}
	
		.st27{opacity:0.3;fill-rule:evenodd;clip-rule:evenodd;fill:url(#SVGID_00000015356071184788519250000001948141191438563739_);enable-background:new    ;}
	.st28{opacity:0.2;fill-rule:evenodd;clip-rule:evenodd;fill:#230B45;enable-background:new    ;}
	.st29{fill-rule:evenodd;clip-rule:evenodd;fill:url(#SVGID_00000045609763849566150640000001271938285928990884_);}
	.st30{fill-rule:evenodd;clip-rule:evenodd;fill:url(#SVGID_00000171719356729463402560000014202697708958333071_);}
	.st31{fill-rule:evenodd;clip-rule:evenodd;fill:url(#SVGID_00000145023333185648723800000009199202487199467682_);}
	.st32{fill-rule:evenodd;clip-rule:evenodd;fill:url(#SVGID_00000030451263962100650430000006690562302790916258_);}
</style>
<g>
	<g>
		<g>
			<defs>
				<rect id="SVGID_1_" width="3000" height="375"/>
			</defs>
			<clipPath id="SVGID_00000131343273140925062990000016152189929434259340_">
				<use xlink:href="#SVGID_1_"  style="overflow:visible;"/>
			</clipPath>
			<g style="clip-path:url(#SVGID_00000131343273140925062990000016152189929434259340_);">
				<g class="st1">
					
						<linearGradient id="SVGID_00000097472194214286175010000013758704614372275386_" gradientUnits="userSpaceOnUse" x1="1744.384" y1="944.3553" x2="1744.884" y2="944.3553" gradientTransform="matrix(0 513.57 -513.56 0 486483.0938 -895873.125)">
						<stop  offset="0" style="stop-color:#00D9E8;stop-opacity:0.4"/>
						<stop  offset="0.5" style="stop-color:#FFB500;stop-opacity:0"/>
						<stop  offset="1" style="stop-color:#E7007D;stop-opacity:0.5"/>
					</linearGradient>
					<rect y="0.1" style="fill:url(#SVGID_00000097472194214286175010000013758704614372275386_);" width="2999.9" height="258.5"/>
				</g>
				<path class="st3" d="M781,26.3c-31.3,0-57.8,21.9-66.2,51.9c-13.1-23.3-37.3-39-65-39c-41.7,0-75.5,35.5-75.5,79.2
					c0,2.4,0.1,4.8,0.4,7.2c-5.7-1.6-11.5-2.5-17.4-2.5c-35.7,0-64.6,30.3-64.6,67.8s28.9,67.7,64.6,67.7s64-29.8,64.6-66.7
					c8.8,3.7,18.3,5.6,27.9,5.6c35.2,0,64.8-25.3,73.1-59.6c12.3,20,33.7,33.3,58.1,33.3c38.1,0,69-32.5,69-72.5
					S819.1,26.3,781,26.3z"/>
				<path class="st3" d="M224.1,181.9c-3.4,0-6.9,0.3-10.3,0.8c-4.8-34.8-34.5-60.8-69.7-60.8c-3.5,0-7.1,0.3-10.6,0.8
					c-6-54-54.5-92.9-108.5-86.9s-92.9,54.5-86.9,108.5s54.5,92.9,108.5,86.9c11.6-1.3,22.9-4.6,33.4-9.9
					c12.8,28.7,43.3,45.4,74.4,40.6c5.4,38.5,40.9,65.3,79.3,59.9s65.3-40.9,59.9-79.3C288.8,207.8,259.2,181.9,224.1,181.9
					L224.1,181.9z"/>
				<polygon class="st4" points="0,258.5 3000,258.6 3000,375 0,375 				"/>
				<path class="st4" d="M2297.5,258.6c0,0,157.1-53.3,162.7-54c8.8-1.2,29.8,10.2,40.2,10.3c12.2,0.1,34.1-14.3,46.3-15.1
					s71.5,24.5,84.7,24.9c18.1,0.6,86.7-15,97.2-16.2c12.7-1.4,46.7,8.7,62.1,6.1c6.6-1.1,23-12,33.7-12.3
					c15.7-0.6,95,33.9,116.5,34c15.8,0,108.7-37.6,128.1-37.6c9.4,0,51,26,51,26v33.9H2297.5z"/>
				
					<linearGradient id="SVGID_00000169523274542464257800000002469801643677189262_" gradientUnits="userSpaceOnUse" x1="2708.75" y1="-2422.95" x2="2708.75" y2="-2545.3899" gradientTransform="matrix(1 0 0 -1 0 -2248)">
					<stop  offset="0" style="stop-color:#365DC6;stop-opacity:0.76"/>
					<stop  offset="1" style="stop-color:#FFFFFF;stop-opacity:0.9"/>
				</linearGradient>
				
					<path style="opacity:0.6;fill-rule:evenodd;clip-rule:evenodd;fill:url(#SVGID_00000169523274542464257800000002469801643677189262_);enable-background:new    ;" d="
					M2297.5,258.6c0,0,157.1-53.3,162.7-54c8.8-1.2,29.8,10.2,40.2,10.3c12.2,0.1,34.1-14.3,46.3-15.1s71.5,24.5,84.7,24.9
					c18.1,0.6,86.7-15,97.2-16.2c12.7-1.4,46.7,8.7,62.1,6.1c6.6-1.1,23-12,33.7-12.3c15.7-0.6,95,33.9,116.5,34
					c15.8,0,108.7-37.6,128.1-37.6c9.4,0,51,26,51,26v33.9H2297.5z"/>
				<path class="st4" d="M1370.7,258.6c0,0,182.3-48.5,241.7-62.8c8.4-2,41.5-0.7,53.1-3.8s26-23.6,37.2-20.5
					c21.4,6,106.2,41.1,120.4,43.1c18.9,2.6,64.3,1.7,76.2,0c17.6-2.6,94.9-38.3,103.9-37.3c15.5,1.7,102.5,46.2,112.9,47.4
					c17.9,2.1,67.4-10.5,71.2-10.1c7.5,0.8,23.7,11.4,28.1,10.9s16.8-13.5,23.6-12.2c85.4,16.4,318.6,45.2,318.6,45.2L1370.7,258.6z
					"/>
				
					<linearGradient id="SVGID_00000168109621883195712510000003234190466456028547_" gradientUnits="userSpaceOnUse" x1="1964.15" y1="-2384.6101" x2="1964.15" y2="-2563.1101" gradientTransform="matrix(1 0 0 -1 0 -2248)">
					<stop  offset="0" style="stop-color:#365DC6;stop-opacity:0.76"/>
					<stop  offset="1" style="stop-color:#FFFFFF;stop-opacity:0.9"/>
				</linearGradient>
				<path style="fill-rule:evenodd;clip-rule:evenodd;fill:url(#SVGID_00000168109621883195712510000003234190466456028547_);" d="
					M1370.7,258.6c0,0,182.3-48.5,241.7-62.8c8.4-2,41.5-0.7,53.1-3.8s26-23.6,37.2-20.5c21.4,6,106.2,41.1,120.4,43.1
					c18.9,2.6,64.3,1.7,76.2,0c17.6-2.6,94.9-38.3,103.9-37.3c15.5,1.7,102.5,46.2,112.9,47.4c17.9,2.1,67.4-10.5,71.2-10.1
					c7.5,0.8,23.7,11.4,28.1,10.9s16.8-13.5,23.6-12.2c85.4,16.4,318.6,45.2,318.6,45.2L1370.7,258.6z"/>
				<path class="st4" d="M388.8,258.5c0,0,121.4-30.2,422.8-173.4C862.9,60.7,913.5,35.1,948,35c26.5-0.1,35.4,9.5,100.9,41.3
					c375.6,182.2,444.5,182.2,444.5,182.2H388.8z"/>
				
					<linearGradient id="SVGID_00000073709739147502188020000003306812529258556289_" gradientUnits="userSpaceOnUse" x1="941.1" y1="-2268.9299" x2="941.1" y2="-2602.98" gradientTransform="matrix(1 0 0 -1 0 -2248)">
					<stop  offset="0" style="stop-color:#365DC6;stop-opacity:0.76"/>
					<stop  offset="1" style="stop-color:#FFFFFF;stop-opacity:0.9"/>
				</linearGradient>
				<path style="fill-rule:evenodd;clip-rule:evenodd;fill:url(#SVGID_00000073709739147502188020000003306812529258556289_);" d="
					M388.8,258.5c0,0,121.4-30.2,422.8-173.4C862.9,60.7,913.5,35.1,948,35c26.5-0.1,35.4,9.5,100.9,41.3
					c375.6,182.2,444.5,182.2,444.5,182.2H388.8z"/>
				
					<linearGradient id="SVGID_00000080201911853839935710000012039539185325191298_" gradientUnits="userSpaceOnUse" x1="1391.4407" y1="-2538.1375" x2="1088.1907" y2="-2395.8274" gradientTransform="matrix(1 0 0 -1 0 -2248)">
					<stop  offset="0" style="stop-color:#365DC6;stop-opacity:0.1"/>
					<stop  offset="1" style="stop-color:#365DC6;stop-opacity:0.6"/>
				</linearGradient>
				
					<path style="opacity:0.25;fill-rule:evenodd;clip-rule:evenodd;fill:url(#SVGID_00000080201911853839935710000012039539185325191298_);enable-background:new    ;" d="
					M1229.9,258.5c0,0-112.6-11-143.7-33c-14.1-9.9,143.7,20.4,157,11.2c10.9-7.5-43.9-32.2-33.9-40.9
					c20.6-17.8,105.4,30.1,284.1,62.7H1229.9z"/>
				
					<linearGradient id="SVGID_00000140714650480977863890000015973013552388220560_" gradientUnits="userSpaceOnUse" x1="4001.4441" y1="-2538.1299" x2="3698.1943" y2="-2395.8198" gradientTransform="matrix(-1 0 0 -1 4488.7197 -2248)">
					<stop  offset="0" style="stop-color:#365DC6;stop-opacity:0.1"/>
					<stop  offset="1" style="stop-color:#365DC6;stop-opacity:0.6"/>
				</linearGradient>
				
					<path style="opacity:0.15;fill-rule:evenodd;clip-rule:evenodd;fill:url(#SVGID_00000140714650480977863890000015973013552388220560_);enable-background:new    ;" d="
					M648.8,258.5c0,0,112.6-11,143.7-33c14.1-9.9-143.7,20.4-157,11.2c-10.9-7.5,43.9-32.2,33.9-40.9
					c-20.6-17.8-105.3,30.1-284.1,62.7H648.8z"/>
				<polygon class="st4" points="834.7,258.5 941.7,202.3 967.7,210.5 1014,213.8 1146.1,258.5 				"/>
				
					<linearGradient id="SVGID_00000002367437379256208180000010169216935295874212_" gradientUnits="userSpaceOnUse" x1="990.4" y1="-2543.3999" x2="990.4" y2="-2434.1001" gradientTransform="matrix(1 0 0 -1 0 -2248)">
					<stop  offset="0" style="stop-color:#365DC6;stop-opacity:0.1"/>
					<stop  offset="1" style="stop-color:#365DC6;stop-opacity:0.6"/>
				</linearGradient>
				
					<polygon style="fill-rule:evenodd;clip-rule:evenodd;fill:url(#SVGID_00000002367437379256208180000010169216935295874212_);" points="
					834.7,258.5 941.7,202.3 967.7,210.5 1014,213.8 1146.1,258.5 				"/>
				<g>
					<g>
						<g>
							<defs>
								<path id="SVGID_00000127759764053417076750000002703579655474309275_" d="M388.8,258.5c0,0,121.4-30.2,422.8-173.4
									C862.9,60.7,913.5,35.1,948,35c26.5-0.1,35.4,9.5,100.9,41.3c375.6,182.2,444.5,182.2,444.5,182.2H388.8z"/>
							</defs>
							<clipPath id="SVGID_00000021118007774337259510000018372442958294704573_">
								<use xlink:href="#SVGID_00000127759764053417076750000002703579655474309275_"  style="overflow:visible;"/>
							</clipPath>
							<g style="clip-path:url(#SVGID_00000021118007774337259510000018372442958294704573_);">
								<path class="st12" d="M692.3,140.2l255-134.4l251.1,141l-54.9-6.1c0,0,93.2,37.6,86.4,37.3c-13.3-0.5-148.2-31.2-148.2-31.2
									s51.5,34.4,46.6,35.1c-8.2,1.2-94-43.7-94-43.7s25,45.2,21.2,43.7c-8.4-3.2-59.3-46.2-59.3-46.2s-4.2,47.6-7.1,48.6
									s-25.6-49.5-25.6-49.5s-22.4,50.6-26.6,52.5s-13.6-51.6-13.6-51.6s-41.4,36.3-43.6,31.7c-1.6-3.1,11.4-42.7,11.4-42.7
									s-88.2,40.2-104.2,39.8c-7-0.2,58.5-59.2,58.5-59.2s-108.2,60.1-126.2,59.2c-3.3-0.2,43.2-46.6,43.2-46.6L692.3,140.2z"/>
							</g>
						</g>
					</g>
				</g>
				
					<linearGradient id="SVGID_00000073700023937165989620000017378659192052908678_" gradientUnits="userSpaceOnUse" x1="1757.0544" y1="952.4286" x2="1757.5044" y2="952.4286" gradientTransform="matrix(0 196.07 -196.07 0 187141.2969 -344355.4062)">
					<stop  offset="0" style="stop-color:#FFB500;stop-opacity:0.49"/>
					<stop  offset="1" style="stop-color:#E7007D;stop-opacity:0"/>
				</linearGradient>
				<circle style="fill:url(#SVGID_00000073700023937165989620000017378659192052908678_);" cx="398.6" cy="204.6" r="65.2"/>
				
					<linearGradient id="SVGID_00000089555611127709047700000009861806125835955357_" gradientUnits="userSpaceOnUse" x1="1500" y1="-2681.1499" x2="1500" y2="-2421.8601" gradientTransform="matrix(1 0 0 -1 0 -2248)">
					<stop  offset="0" style="stop-color:#00D9E8;stop-opacity:0.5"/>
					<stop  offset="0.5" style="stop-color:#FFB500;stop-opacity:0"/>
					<stop  offset="1" style="stop-color:#E7007D;stop-opacity:0.5"/>
				</linearGradient>
				
					<polygon style="fill-rule:evenodd;clip-rule:evenodd;fill:url(#SVGID_00000089555611127709047700000009861806125835955357_);" points="
					0,258.5 3000,258.6 3000,375 0,375 				"/>
				<g class="st15">
					
						<linearGradient id="SVGID_00000013169358358291009300000016343822498048558983_" gradientUnits="userSpaceOnUse" x1="0" y1="-2564.75" x2="3000" y2="-2564.75" gradientTransform="matrix(1 0 0 -1 0 -2248)">
						<stop  offset="0" style="stop-color:#E7007D;stop-opacity:0.3"/>
						<stop  offset="0.5" style="stop-color:#FFB500;stop-opacity:0.2"/>
						<stop  offset="1" style="stop-color:#365DC6;stop-opacity:0.4"/>
					</linearGradient>
					
						<polygon style="fill-rule:evenodd;clip-rule:evenodd;fill:url(#SVGID_00000013169358358291009300000016343822498048558983_);" points="
						0,258.5 3000,258.6 3000,375 0,375 					"/>
				</g>
				<path class="st17" d="M283.5,198.4l124,0.4c0,0-3.4-15.8-22.8-16.4c-15.5-0.4-23.6,12.9-23.6,12.9s-10.3-24.5-43.1-24.8
					C291,170.3,283.5,198.4,283.5,198.4z"/>
				<path class="st18" d="M476.2,151.3l14.4,12l14.4-12c-5.5,1.9-10.4,5.2-14.4,9.4C486.7,156.4,481.7,153.2,476.2,151.3z"/>
				<path class="st18" d="M508.2,164.3l7.2,6l7.2-6c-2.7,1-5.2,2.6-7.2,4.7C513.4,166.8,511,165.2,508.2,164.3z"/>
				<path class="st18" d="M516.2,141.3l9.9,8.2l9.9-8.2c-3.8,1.4-7.2,3.6-9.9,6.5C523.4,144.8,520,142.6,516.2,141.3z"/>
				<path class="st19" d="M922.6,104.2c7.9-2.8,23.3-52.6,15.4-54.9s-59,26.5-56.1,27.5s30.7-9.2,36.5-8.7
					C921.8,68.4,919.8,105.2,922.6,104.2z"/>
				<path class="st19" d="M964.1,82.2c-4.6,0-11-29.4-6.6-30.5s30.7,12,29.5,13.1s-16.8-3.2-20-3.1S965.5,82.2,964.1,82.2z"/>
				<path class="st4" d="M0,269.5v-61.2c0,0,26.4,7.2,35.3,6s22.4-11,31-11.3c14.7-0.6,50.2,9.6,62,11.5c17.8,2.8,40.8-3.2,58.8-4.5
					c32.7-2.3,104.6,12.9,132.8,22.2c15.6,5.1,59.2,9.3,75.6,9.3c48.5,0.1,123.7-5.4,172.1-1.1c26.6,2.4,91.6,29.1,91.6,29.1H0z"/>
				<path class="st4" d="M1009.9,298.8c0,0,149.1-53.3,170.6-55.2c9.1-0.8,34.5,10.3,46.4,11.7c9.6,1.2,29.1-4.1,38.8-3.7
					c12,0.4,67.3,24.9,90.9,26.6c8.1,0.5,23.6-7,31.7-7c15-0.1,172.8,27.6,172.8,27.6H1009.9z"/>
				
					<linearGradient id="SVGID_00000032615017478926998430000006600786508866271135_" gradientUnits="userSpaceOnUse" x1="1285.5" y1="-2441.27" x2="1285.5" y2="-2667.5" gradientTransform="matrix(1 0 0 -1 0 -2248)">
					<stop  offset="0" style="stop-color:#365DC6;stop-opacity:0.76"/>
					<stop  offset="1" style="stop-color:#FFFFFF;stop-opacity:0.9"/>
				</linearGradient>
				<path style="fill-rule:evenodd;clip-rule:evenodd;fill:url(#SVGID_00000032615017478926998430000006600786508866271135_);" d="
					M1009.9,298.8c0,0,149.1-53.3,170.6-55.2c9.1-0.8,34.5,10.3,46.4,11.7c9.6,1.2,29.1-4.1,38.8-3.7c12,0.4,67.3,24.9,90.9,26.6
					c8.1,0.5,23.6-7,31.7-7c15-0.1,172.8,27.6,172.8,27.6H1009.9z"/>
				<path class="st4" d="M-40.8,248.3c0,0,50.6-30.1,69.7-30.7s51.9,18.3,70.1,19.9c6.5,0.6,21.1-1.1,26.3,0
					c7.7,1.7,25.5,18.2,31.3,18s26.8-16.9,34.5-16c33.1,3.8,60.4,15.4,85.8,16c10.2,0.3,30.4-3.9,40.7-3.6
					c24.9,0.6,73.7,10.4,98.9,12.3c18.5,1.4,55.9-3.3,69.4-1.7c21.1,2.7,75.6,34.4,75.6,34.4H-40.8V248.3z"/>
				
					<linearGradient id="SVGID_00000122686660912407841030000009043968649079220139_" gradientUnits="userSpaceOnUse" x1="1640.0437" y1="-2634.1204" x2="1803.2437" y2="-2566.9202" gradientTransform="matrix(1 0 0 -1 0 -2248)">
					<stop  offset="0" style="stop-color:#FFFFFF;stop-opacity:0.5"/>
					<stop  offset="1" style="stop-color:#FFFFFF;stop-opacity:0"/>
				</linearGradient>
				<path style="fill-rule:evenodd;clip-rule:evenodd;fill:url(#SVGID_00000122686660912407841030000009043968649079220139_);" d="
					M1680.8,258.6c0,0,49,3,33,12.3c-7.8,4.5-86.2,1.9-84.2,18.3c3.1,24.9,168.6,28.7,168.6,28.7s-72.8,13.4-58.3,29.8
					s222.8,16.3,222.8,16.3l-150.9-105.4L1680.8,258.6L1680.8,258.6z"/>
				
					<linearGradient id="SVGID_00000017486948371311148620000004646667465024477859_" gradientUnits="userSpaceOnUse" x1="2357.9436" y1="-2634.1204" x2="2521.1436" y2="-2566.9204" gradientTransform="matrix(1 0 0 -1 0 -2248)">
					<stop  offset="0" style="stop-color:#FFFFFF;stop-opacity:0.5"/>
					<stop  offset="1" style="stop-color:#FFFFFF;stop-opacity:0"/>
				</linearGradient>
				<path style="fill-rule:evenodd;clip-rule:evenodd;fill:url(#SVGID_00000017486948371311148620000004646667465024477859_);" d="
					M2398.7,258.6c0,0,49,3,33,12.3c-7.8,4.5-86.2,1.9-84.2,18.3c3.1,24.9,168.6,28.7,168.6,28.7s-72.8,13.4-58.3,29.8
					s222.8,16.3,222.8,16.3l-150.9-105.4L2398.7,258.6L2398.7,258.6z"/>
				
					<linearGradient id="SVGID_00000152952454602310785390000011527144599404497044_" gradientUnits="userSpaceOnUse" x1="2009.5631" y1="-2693.1074" x2="2179.3733" y2="-2623.1775" gradientTransform="matrix(1 0 0 -1 0 -2248)">
					<stop  offset="0" style="stop-color:#FFFFFF;stop-opacity:0.5"/>
					<stop  offset="1" style="stop-color:#FFFFFF;stop-opacity:0"/>
				</linearGradient>
				<path style="fill-rule:evenodd;clip-rule:evenodd;fill:url(#SVGID_00000152952454602310785390000011527144599404497044_);" d="
					M2163.9,323.8c0,0-171-1.3-165.5,20.1c2.2,8.7,109.4,11.5,109.4,11.5s-45.2,6.5-41.8,18.6c5,17.5,74,9.6,74,9.6
					s-37.6,12-32.8,20.4c9.6,16.6,236.5,14.1,236.5,14.1L2163.9,323.8z"/>
				
					<linearGradient id="SVGID_00000039820065644086188810000006042688779596978320_" gradientUnits="userSpaceOnUse" x1="1165.8887" y1="-2680.1226" x2="1335.7086" y2="-2610.2026" gradientTransform="matrix(1 0 0 -1 0 -2248)">
					<stop  offset="0" style="stop-color:#FFFFFF;stop-opacity:0.5"/>
					<stop  offset="1" style="stop-color:#FFFFFF;stop-opacity:0"/>
				</linearGradient>
				<path style="fill-rule:evenodd;clip-rule:evenodd;fill:url(#SVGID_00000039820065644086188810000006042688779596978320_);" d="
					M1320.3,310.8c0,0-171-1.3-165.6,20.2c2.2,8.7,109.4,11.4,109.4,11.4s-45.2,6.6-41.7,18.7c4.9,17.5,73.9,9.6,73.9,9.6
					s-37.5,12-32.7,20.3c9.5,16.7,236.4,14.1,236.4,14.1L1320.3,310.8z"/>
				
					<linearGradient id="SVGID_00000056425702874641790690000006533483755212891814_" gradientUnits="userSpaceOnUse" x1="700.5961" y1="-2649.8848" x2="870.4061" y2="-2579.9548" gradientTransform="matrix(1 0 0 -1 0 -2248)">
					<stop  offset="0" style="stop-color:#FFFFFF;stop-opacity:0.5"/>
					<stop  offset="1" style="stop-color:#FFFFFF;stop-opacity:0"/>
				</linearGradient>
				<path style="fill-rule:evenodd;clip-rule:evenodd;fill:url(#SVGID_00000056425702874641790690000006533483755212891814_);" d="
					M854.9,280.6c0,0-170.9-1.4-165.5,20.1c2.2,8.7,109.4,11.4,109.4,11.4s-45.2,6.6-41.8,18.7c5,17.5,74,9.6,74,9.6
					s-37.5,12-32.7,20.3c9.5,16.7,236.4,14.2,236.4,14.2L854.9,280.6z"/>
				
					<linearGradient id="SVGID_00000101804806832668494490000004862631496468715963_" gradientUnits="userSpaceOnUse" x1="345.3923" y1="-2672.1414" x2="508.5923" y2="-2604.9414" gradientTransform="matrix(1 0 0 -1 0 -2248)">
					<stop  offset="0" style="stop-color:#FFFFFF;stop-opacity:0.5"/>
					<stop  offset="1" style="stop-color:#FFFFFF;stop-opacity:0"/>
				</linearGradient>
				<path style="fill-rule:evenodd;clip-rule:evenodd;fill:url(#SVGID_00000101804806832668494490000004862631496468715963_);" d="
					M386.2,296.6c0,0,48.9,3,32.9,12.3c-7.7,4.5-86.2,1.9-84.1,18.3c3.1,24.9,168.5,28.7,168.5,28.7s-72.8,13.4-58.2,29.8
					S668.1,402,668.1,402l-151-105.4H386.2z"/>
				
					<linearGradient id="SVGID_00000059998681789409119010000007458989799357417394_" gradientUnits="userSpaceOnUse" x1="2801.9094" y1="-2634.1343" x2="2965.1096" y2="-2566.9343" gradientTransform="matrix(1 0 0 -1 0 -2248)">
					<stop  offset="1.000000e-02" style="stop-color:#FFFFFF;stop-opacity:0.7"/>
					<stop  offset="1" style="stop-color:#FFFFFF;stop-opacity:0"/>
				</linearGradient>
				
					<path style="opacity:0.3;fill-rule:evenodd;clip-rule:evenodd;fill:url(#SVGID_00000059998681789409119010000007458989799357417394_);enable-background:new    ;" d="
					M2842.7,258.6c0,0,49,3,33,12.3c-7.8,4.5-86.2,1.9-84.2,18.3c3.1,24.9,168.6,28.7,168.6,28.7s-72.9,13.4-58.3,29.8
					s222.8,16.3,222.8,16.3l-151-105.4L2842.7,258.6L2842.7,258.6z"/>
				<g class="st1">
					<polygon class="st4" points="1861.7,317 1861.7,282.3 1845.6,316.4 					"/>
					<polygon class="st4" points="1861.9,276.9 1861.9,314.1 1880.2,314 					"/>
					<polygon class="st4" points="1881.3,324.1 1848,324.1 1845.6,319.3 1883.5,319.3 					"/>
					<polygon class="st28" points="1861.7,317 1861.7,282.3 1845.6,316.4 					"/>
					<polygon class="st18" points="1861.9,276.9 1861.9,314.1 1880.2,314 					"/>
					
						<linearGradient id="SVGID_00000069357271962510757970000009700420606392354707_" gradientUnits="userSpaceOnUse" x1="1845.6" y1="-2569.7" x2="1883.5" y2="-2569.7" gradientTransform="matrix(1 0 0 -1 0 -2248)">
						<stop  offset="0" style="stop-color:#365DC6;stop-opacity:0.76"/>
						<stop  offset="1" style="stop-color:#230B45"/>
					</linearGradient>
					
						<polygon style="fill-rule:evenodd;clip-rule:evenodd;fill:url(#SVGID_00000069357271962510757970000009700420606392354707_);" points="
						1881.3,324.1 1848,324.1 1845.6,319.3 1883.5,319.3 					"/>
				</g>
				
					<linearGradient id="SVGID_00000168100523186557113850000011111204284174106758_" gradientUnits="userSpaceOnUse" x1="329.6" y1="-2438.9299" x2="329.6" y2="-2596.5701" gradientTransform="matrix(1 0 0 -1 0 -2248)">
					<stop  offset="0" style="stop-color:#365DC6;stop-opacity:0.76"/>
					<stop  offset="1" style="stop-color:#FFFFFF;stop-opacity:0.9"/>
				</linearGradient>
				<path style="fill-rule:evenodd;clip-rule:evenodd;fill:url(#SVGID_00000168100523186557113850000011111204284174106758_);" d="
					M0,269.5v-61.2c0,0,26.4,7.2,35.3,6s22.4-11,31-11.3c14.7-0.6,50.2,9.6,62,11.5c17.8,2.8,40.8-3.2,58.8-4.5
					c32.7-2.3,104.6,12.9,132.8,22.2c15.6,5.1,59.2,9.3,75.6,9.3c48.5,0.1,123.7-5.4,172.1-1.1c26.6,2.4,91.6,29.1,91.6,29.1H0z"/>
				<path class="st4" d="M-40.8,248.3c0,0,50.6-30.1,69.7-30.7s51.9,18.3,70.1,19.9c6.5,0.6,21.1-1.1,26.3,0
					c7.7,1.7,25.5,18.2,31.3,18s26.8-16.9,34.5-16c33.1,3.8,60.4,15.4,85.8,16c10.2,0.3,30.4-3.9,40.7-3.6
					c24.9,0.6,73.7,10.4,98.9,12.3c18.5,1.4,55.9-3.3,69.4-1.7c21.1,2.7,75.6,34.4,75.6,34.4H-40.8V248.3z"/>
				
					<linearGradient id="SVGID_00000111899548448009269260000011117033643042727301_" gradientUnits="userSpaceOnUse" x1="260.35" y1="-2468.5801" x2="260.35" y2="-2599.8999" gradientTransform="matrix(1 0 0 -1 0 -2248)">
					<stop  offset="0" style="stop-color:#365DC6;stop-opacity:0.85"/>
					<stop  offset="1" style="stop-color:#FFFFFF;stop-opacity:0.9"/>
				</linearGradient>
				<path style="fill-rule:evenodd;clip-rule:evenodd;fill:url(#SVGID_00000111899548448009269260000011117033643042727301_);" d="
					M-40.8,248.3c0,0,50.6-30.1,69.7-30.7s51.9,18.3,70.1,19.9c6.5,0.6,21.1-1.1,26.3,0c7.7,1.7,25.5,18.2,31.3,18
					s26.8-16.9,34.5-16c33.1,3.8,60.4,15.4,85.8,16c10.2,0.3,30.4-3.9,40.7-3.6c24.9,0.6,73.7,10.4,98.9,12.3
					c18.5,1.4,55.9-3.3,69.4-1.7c21.1,2.7,75.6,34.4,75.6,34.4H-40.8V248.3z"/>
				<g class="st15">
					<polygon class="st4" points="745.3,329.3 745.3,294.7 729.2,328.8 					"/>
					<polygon class="st4" points="745.5,289.2 745.5,326.5 763.8,326.3 					"/>
					<polygon class="st4" points="764.9,336.5 731.5,336.5 729.2,331.6 767,331.6 					"/>
					<polygon class="st28" points="745.3,329.3 745.3,294.7 729.2,328.8 					"/>
					<polygon class="st18" points="745.5,289.2 745.5,326.5 763.8,326.3 					"/>
					
						<linearGradient id="SVGID_00000078027368859648392210000007031710380359093946_" gradientUnits="userSpaceOnUse" x1="729.16" y1="-2582.05" x2="767.04" y2="-2582.05" gradientTransform="matrix(1 0 0 -1 0 -2248)">
						<stop  offset="0" style="stop-color:#365DC6;stop-opacity:0.76"/>
						<stop  offset="1" style="stop-color:#230B45"/>
					</linearGradient>
					
						<polygon style="fill-rule:evenodd;clip-rule:evenodd;fill:url(#SVGID_00000078027368859648392210000007031710380359093946_);" points="
						764.9,336.5 731.5,336.5 729.2,331.6 767,331.6 					"/>
				</g>
			</g>
		</g>
	</g>
</g>
</svg>
