<svg id="Layer_1" data-name="Layer 1" xmlns="http://www.w3.org/2000/svg" xmlns:xlink="http://www.w3.org/1999/xlink" viewBox="0 0 563.3 100"><defs><style>.cls-1{fill:none;}.cls-2{fill:url(#linear-gradient);}.cls-3{clip-path:url(#clip-path);}.cls-4,.cls-7{opacity:0.5;}.cls-4{fill:url(#linear-gradient-2);}.cls-5{fill:url(#linear-gradient-3);}.cls-6{clip-path:url(#clip-path-2);}.cls-7{fill:url(#linear-gradient-4);}.cls-8{fill:url(#linear-gradient-5);}.cls-9{opacity:0.7;}.cls-10{fill:url(#linear-gradient-6);}.cls-11{fill:url(#linear-gradient-7);}.cls-12{opacity:0.25;}.cls-13{fill:url(#linear-gradient-8);}.cls-14{fill:#200c42;}</style><linearGradient id="linear-gradient" x1="24.99" y1="54.69" x2="64.44" y2="54.69" gradientUnits="userSpaceOnUse"><stop offset="0" stop-color="#3f5cbf"/><stop offset="1" stop-color="#48d5e5"/></linearGradient><clipPath id="clip-path"><path class="cls-1" d="M40.3,66.5a11.2,11.2,0,0,1,6-7.9,11.7,11.7,0,0,1,7.8-1.2L64.6,15.6A40.8,40.8,0,1,0,52.9,95.5,42.4,42.4,0,0,0,63,94.2c2.3-.6,2.9-.5,3.4-1,2.7-2.8-2.8-12-4.8-15.3-7.3,3.5-15,2.4-18.8-2A11.8,11.8,0,0,1,40.3,66.5Z"/></clipPath><linearGradient id="linear-gradient-2" x1="18.71" y1="5.24" x2="105.24" y2="19.5" gradientUnits="userSpaceOnUse"><stop offset="0" stop-color="#266f9a"/><stop offset="1" stop-color="#266f9a" stop-opacity="0.5"/></linearGradient><linearGradient id="linear-gradient-3" x1="-10.15" y1="50" x2="86" y2="50" xlink:href="#linear-gradient"/><clipPath id="clip-path-2"><path class="cls-1" d="M39.4,54.9a15.4,15.4,0,0,1,10.3-3.2c4.9-16.5,9.8-33.1,14.6-49.6A48,48,0,0,0,50,0a50,50,0,0,0,0,100,50.7,50.7,0,0,0,16.6-2.8c6-2.3,9.9-7.1,9.7-11.7a9.7,9.7,0,0,0-3.1-6.9,8.7,8.7,0,0,0-4.1-2c-6.4-1.3-9.9,4.1-16.9,5.2-5.4.8-12.7-1-16.3-6.3S33.3,59.7,39.4,54.9Z"/></clipPath><linearGradient id="linear-gradient-4" x1="4.63" y1="-0.41" x2="94.18" y2="14.34" xlink:href="#linear-gradient-2"/><linearGradient id="linear-gradient-5" x1="0" y1="44.72" x2="99.99" y2="44.72" xlink:href="#linear-gradient"/><linearGradient id="linear-gradient-6" y1="44.72" x2="198.21" y2="44.72" gradientUnits="userSpaceOnUse"><stop offset="0" stop-color="#fff"/><stop offset="1" stop-color="#6ab0bd" stop-opacity="0"/></linearGradient><linearGradient id="linear-gradient-7" x1="49.26" y1="-6.33" x2="49.26" y2="74.41" xlink:href="#linear-gradient"/><linearGradient id="linear-gradient-8" x1="-6460.39" y1="16.96" x2="-6407.38" y2="25.69" gradientTransform="matrix(-1, 0, 0, 1, -6382.27, 0)" gradientUnits="userSpaceOnUse"><stop offset="0" stop-color="#fff"/><stop offset="1" stop-color="#6ab0bd"/></linearGradient></defs><path class="cls-2" d="M40.3,66.5a11.2,11.2,0,0,1,6-7.9,11.7,11.7,0,0,1,7.8-1.2L64.6,15.6A40.8,40.8,0,1,0,52.9,95.5,42.4,42.4,0,0,0,63,94.2c2.3-.6,2.9-.5,3.4-1,2.7-2.8-2.8-12-4.8-15.3-7.3,3.5-15,2.4-18.8-2A11.8,11.8,0,0,1,40.3,66.5Z"/><g class="cls-3"><path class="cls-4" d="M19.1-31.6C3.7-21.3-.8-4.3-2.1,1.5L37,57.4c.3-.2,4.1-1.9,6.9,0a6.6,6.6,0,0,1,1.5,1.7l70.3,11.8c21.2-12.9,25-26.8,25.9-31.7,6.3-32.1-36.2-64.9-71.1-74.3C58.8-38.2,37.5-44,19.1-31.6Z"/></g><path class="cls-5" d="M39.4,54.9a15.4,15.4,0,0,1,10.3-3.2c4.9-16.5,9.8-33.1,14.6-49.6A48,48,0,0,0,50,0a50,50,0,0,0,0,100,50.7,50.7,0,0,0,16.6-2.8c6-2.3,9.9-7.1,9.7-11.7a9.7,9.7,0,0,0-3.1-6.9,8.7,8.7,0,0,0-4.1-2c-6.4-1.3-9.9,4.1-16.9,5.2-5.4.8-12.7-1-16.3-6.3S33.3,59.7,39.4,54.9Z"/><g class="cls-6"><path class="cls-7" d="M-18.1,3.6C-19.9,28.4,5.7,47.7,9.4,50.3c7.7-4.3,16.4-4.5,22.2-.1A16,16,0,0,1,37,57.4c47.7,11.2,87.7-4.5,95.2-26.9C141.4,3,102.8-39.3,61.1-43.8,27.7-47.3-15.9-27.4-18.1,3.6Z"/></g><path class="cls-8" d="M19.3,89.4A50,50,0,1,1,99.6,43.8V44c.3,1.7,2.6,17.8-7.7,26.2-6.2,5.1-13.8,4.7-14.5,4.7-21.5-1.3-27.8-37.2-49.2-38a19.9,19.9,0,0,0-10.9,2.9c-10.4,6.6-10,22.4-9.9,25C8,78.4,16.8,87.2,19.3,89.4Z"/><g class="cls-9"><path class="cls-10" d="M19.3,89.4A50,50,0,1,1,99.6,43.8V44c.3,1.7,2.6,17.8-7.7,26.2-6.2,5.1-13.8,4.7-14.5,4.7-21.5-1.3-27.8-37.2-49.2-38a19.9,19.9,0,0,0-10.9,2.9c-10.4,6.6-10,22.4-9.9,25C8,78.4,16.8,87.2,19.3,89.4Z"/></g><path class="cls-11" d="M0,50A50,50,0,0,1,96.5,31.5h0a23.1,23.1,0,0,1,1.9,7c.1,1.6.7,7-2.1,11.1s-10.8,6.1-11.5,6.1c-18,1.6-24.8-29-49.5-32.4A28.2,28.2,0,0,0,19,25.6C7.3,31.4,4,44.9,3.2,48.1a40,40,0,0,0,.9,21.7A50.5,50.5,0,0,1,0,50Z"/><g class="cls-12"><path class="cls-13" d="M2.3,34.9A50,50,0,0,1,87.7,17.2c5.6,7.1,7.1,14.2,4.2,17.9S85.1,38,84.5,38c-10.7-.3-11.6-15.5-26.3-24S29.3,10.2,28,10.6a37,37,0,0,0-12,6A40,40,0,0,0,2.3,34.9Z"/></g><path class="cls-14" d="M172.7,74.8a6.8,6.8,0,0,1-1.9,4.8,13.7,13.7,0,0,1-6.6,3.7,33.9,33.9,0,0,1-9.7,1.3A26.5,26.5,0,0,1,142,81.7a20.2,20.2,0,0,1-8.3-8.1,23.8,23.8,0,0,1-2.9-12.1,24.7,24.7,0,0,1,2.8-12,20.1,20.1,0,0,1,8-8.1,23.2,23.2,0,0,1,11.8-2.9c5.4,0,9.7,1.5,13.1,4.7s5.2,7.7,5.2,13.6c0,3.4-.9,5.7-2.5,7.1s-4.4,2.1-8.3,2.1H145.1a8.5,8.5,0,0,0,3.5,4.2,11,11,0,0,0,5.9,1.5,15,15,0,0,0,4.2-.5,26.2,26.2,0,0,0,3.5-1.3,10.4,10.4,0,0,1,4.7-1.1,5.4,5.4,0,0,1,4,1.7A5.5,5.5,0,0,1,172.7,74.8ZM145.1,56.6h14.3a5.7,5.7,0,0,0-1.7-4.2,5.4,5.4,0,0,0-4.2-1.7,8.6,8.6,0,0,0-5.3,1.6A8.4,8.4,0,0,0,145.1,56.6Z"/><path class="cls-14" d="M211.9,45.1a6.2,6.2,0,0,1-1.9,5,8.2,8.2,0,0,1-5.5,1.7,8.4,8.4,0,0,0-6.8,2.8c-1.6,1.8-2.4,4.5-2.4,7.8V76.3a9.2,9.2,0,0,1-1.8,6.1c-1.2,1.5-3.1,2.2-5.6,2.2-4.9,0-7.4-2.8-7.4-8.3V46.8c0-5.6,2.5-8.3,7.4-8.3s6.5,2,7.2,5.9c2.8-3.9,6.3-5.9,10.6-5.9a5.8,5.8,0,0,1,4.6,1.7A6.7,6.7,0,0,1,211.9,45.1Z"/><path class="cls-14" d="M216.9,23.5a7.9,7.9,0,0,1,8.1-8.1,8.2,8.2,0,0,1,5.9,2.3,8,8,0,0,1,2.3,5.8,7.9,7.9,0,0,1-8.2,8.2,8,8,0,0,1-5.8-2.3A8.2,8.2,0,0,1,216.9,23.5Zm.7,52.8V46.7c0-5.5,2.5-8.2,7.4-8.2s7.5,2.7,7.5,8.2V76.3a9.2,9.2,0,0,1-1.8,6.1c-1.2,1.5-3.1,2.2-5.7,2.2s-4.4-.7-5.6-2.2A9.2,9.2,0,0,1,217.6,76.3Z"/><path class="cls-14" d="M285.8,75.5a9.4,9.4,0,0,1,.5,3,6,6,0,0,1-1.7,4.2,5.3,5.3,0,0,1-4.4,1.9,10.3,10.3,0,0,1-4.4-.7,9.1,9.1,0,0,1-3.2-3.1L262.6,67l-5,4.3v5a9.2,9.2,0,0,1-1.8,6.1c-1.2,1.5-3.1,2.2-5.6,2.2-4.9,0-7.3-2.8-7.3-8.3V23.6c0-5.5,2.4-8.2,7.3-8.2s7.4,2.7,7.4,8.2v29L271,40.7a8.6,8.6,0,0,1,5.5-2.2c2.4,0,4.1.6,5.2,2a6.3,6.3,0,0,1,1.7,4.4,7.8,7.8,0,0,1-.8,3.5,11.8,11.8,0,0,1-2.6,3.2l-7.4,6.6L284,72.5A9.9,9.9,0,0,1,285.8,75.5Z"/><path class="cls-14" d="M310.6,79.1a6.7,6.7,0,0,1-2.5-5.3,5.6,5.6,0,0,1,1.6-4.1,6.1,6.1,0,0,1,4.2-1.6c1.2,0,3,.6,5.4,1.9a26.2,26.2,0,0,0,10.8,2.8c2.8,0,4.2-.9,4.2-2.5a2,2,0,0,0-1.1-1.7,11,11,0,0,0-3.8-.9l-3.3-.5c-5.1-.7-9-2.2-11.8-4.4s-4.1-5.6-4.1-9.9a12.5,12.5,0,0,1,2.2-7.2,14.5,14.5,0,0,1,6.3-5.3,24.4,24.4,0,0,1,10.2-1.9,29.8,29.8,0,0,1,7.8,1,24.9,24.9,0,0,1,6.3,2.6,5.7,5.7,0,0,1,3.2,5.3,5.7,5.7,0,0,1-1.5,4.2,5.1,5.1,0,0,1-4,1.6,6.6,6.6,0,0,1-2.3-.4l-2.6-1a17.6,17.6,0,0,0-7.6-1.6,4,4,0,0,0-2.6.7,1.8,1.8,0,0,0-.9,1.6,1.9,1.9,0,0,0,1,1.7,8.9,8.9,0,0,0,3.4.9l3.3.5c5.2.7,9.2,2.1,12,4.1s4.3,5.3,4.3,9.7a13.2,13.2,0,0,1-2.4,7.7,16.4,16.4,0,0,1-6.8,5.5,25.2,25.2,0,0,1-10.3,2,33.9,33.9,0,0,1-11.1-1.7A19.9,19.9,0,0,1,310.6,79.1Z"/><path class="cls-14" d="M357,73.5a23.7,23.7,0,0,1-2.9-12A23.6,23.6,0,0,1,357,49.6a21,21,0,0,1,8-8.2,25.9,25.9,0,0,1,23.8,0,20.6,20.6,0,0,1,8.1,8.2,24.7,24.7,0,0,1,2.9,11.9,24.8,24.8,0,0,1-2.9,12,20.6,20.6,0,0,1-8.1,8.2,25.9,25.9,0,0,1-23.8,0A21,21,0,0,1,357,73.5Zm19.9-21.7c-5.1,0-7.7,3.2-7.7,9.7s2.6,9.8,7.7,9.8,7.8-3.2,7.8-9.8S382.1,51.8,376.9,51.8Z"/><path class="cls-14" d="M437.3,77.3c0,4.9-3.2,7.3-9.6,7.3s-10.5-1.4-12.9-4.3-3.7-6.9-3.7-12.1V52.7H410a9,9,0,0,1-5.7-1.7,5.9,5.9,0,0,1-2-4.9,6.5,6.5,0,0,1,2-5.1,9,9,0,0,1,5.7-1.6h1.1V34.9c0-5.5,2.5-8.3,7.4-8.3s7.3,2.8,7.3,8.3v4.5h3.8a8.7,8.7,0,0,1,5.6,1.6,6.5,6.5,0,0,1,2,5.1,5.9,5.9,0,0,1-2,4.9,8.7,8.7,0,0,1-5.6,1.7h-3.8V67a5.5,5.5,0,0,0,.8,3.3c.5.7,1.6,1,3.2,1a9.4,9.4,0,0,1,5.6,1.4C436.7,73.6,437.3,75.1,437.3,77.3Z"/><path class="cls-14" d="M483.2,74.8a7.2,7.2,0,0,1-1.8,4.8,13.7,13.7,0,0,1-6.6,3.7,34.6,34.6,0,0,1-9.8,1.3,26.1,26.1,0,0,1-12.4-2.9,19.7,19.7,0,0,1-8.3-8.1,23.9,23.9,0,0,1-3-12.1,24.8,24.8,0,0,1,2.9-12,19.5,19.5,0,0,1,8-8.1,22.6,22.6,0,0,1,11.7-2.9c5.4,0,9.8,1.5,13.2,4.7s5.1,7.7,5.1,13.6c0,3.4-.8,5.7-2.4,7.1s-4.4,2.1-8.4,2.1H455.6a8.5,8.5,0,0,0,3.5,4.2,11.3,11.3,0,0,0,5.9,1.5,16.3,16.3,0,0,0,4.3-.5,26.2,26.2,0,0,0,3.5-1.3,10,10,0,0,1,4.6-1.1,5.2,5.2,0,0,1,4,1.7A5.5,5.5,0,0,1,483.2,74.8ZM455.6,56.6h14.3a5.7,5.7,0,0,0-1.6-4.2,5.4,5.4,0,0,0-4.3-1.7,8.3,8.3,0,0,0-5.2,1.6A8.6,8.6,0,0,0,455.6,56.6Z"/><path class="cls-14" d="M491.1,23.7a9.2,9.2,0,0,1,1.8-6.1c1.2-1.5,3.1-2.2,5.6-2.2s4.4.7,5.6,2.2a9.2,9.2,0,0,1,1.8,6.1V68a3.6,3.6,0,0,0,.7,2.5,3,3,0,0,0,2.3.8,6.4,6.4,0,0,1,4.1,1.4c1.1.9,1.6,2.4,1.6,4.5a7,7,0,0,1-2.1,5.4,8.2,8.2,0,0,1-5.8,2c-10.4,0-15.6-5.3-15.6-16Z"/><path class="cls-14" d="M520.5,73.5a24.8,24.8,0,0,1-2.9-12,24.7,24.7,0,0,1,2.9-11.9,21,21,0,0,1,8-8.2,25.9,25.9,0,0,1,23.8,0,20.6,20.6,0,0,1,8.1,8.2,24.7,24.7,0,0,1,2.9,11.9,24.8,24.8,0,0,1-2.9,12,20.6,20.6,0,0,1-8.1,8.2,25.9,25.9,0,0,1-23.8,0A21,21,0,0,1,520.5,73.5Zm19.9-21.7c-5.1,0-7.7,3.2-7.7,9.7s2.6,9.8,7.7,9.8,7.8-3.2,7.8-9.8S545.6,51.8,540.4,51.8Z"/></svg>